#include "hUGEDriver.h"
#include <stddef.h>

static const unsigned char order_cnt = 18;

static const unsigned char P0[] = {
    DN(C_6,3,0x000),
    DN(___,0,0x000),
    DN(Ds6,3,0x000),
    DN(C_6,3,0xC05),
    DN(G_6,3,0x000),
    DN(Ds6,3,0xC05),
    DN(Ds6,3,0x000),
    DN(G_6,3,0xC05),
    DN(C_6,3,0x000),
    DN(Ds6,3,0xC05),
    DN(Ds6,3,0x000),
    DN(C_6,3,0xC05),
    DN(G_6,3,0x000),
    DN(Ds6,3,0xC05),
    DN(Ds6,3,0x000),
    DN(G_6,3,0xC05),
    DN(C_6,3,0x000),
    DN(Ds6,3,0xC05),
    DN(Ds6,3,0x000),
    DN(C_6,3,0xC05),
    DN(G_6,3,0x000),
    DN(Ds6,3,0xC05),
    DN(Ds6,3,0x000),
    DN(G_6,3,0xC05),
    DN(C_6,3,0x000),
    DN(Ds6,3,0xC05),
    DN(Ds6,3,0x000),
    DN(C_6,3,0xC05),
    DN(G_6,3,0x000),
    DN(Ds6,3,0xC05),
    DN(Ds6,3,0x000),
    DN(G_6,3,0xC05),
    DN(C_6,3,0x000),
    DN(___,0,0x000),
    DN(Ds6,3,0x000),
    DN(C_6,3,0xC05),
    DN(Gs6,3,0x000),
    DN(Ds6,3,0xC05),
    DN(Ds6,3,0x000),
    DN(Gs6,3,0xC05),
    DN(C_6,3,0x000),
    DN(Ds6,3,0xC05),
    DN(Ds6,3,0x000),
    DN(C_6,3,0xC05),
    DN(Gs6,3,0x000),
    DN(Ds6,3,0xC05),
    DN(Ds6,3,0x000),
    DN(Gs6,3,0xC05),
    DN(As5,3,0x000),
    DN(___,0,0x000),
    DN(D_6,3,0x000),
    DN(As5,3,0xC05),
    DN(F_6,3,0x000),
    DN(D_6,3,0xC05),
    DN(D_6,3,0x000),
    DN(F_6,3,0xC05),
    DN(As5,3,0x000),
    DN(D_6,3,0xC05),
    DN(D_6,3,0x000),
    DN(As5,3,0xC05),
    DN(F_6,3,0x000),
    DN(D_6,3,0xC05),
    DN(D_6,3,0x000),
    DN(F_6,3,0xC05),
};
static const unsigned char P1[] = {
    DN(G_5,2,0x481),
    DN(___,0,0x481),
    DN(As5,2,0x30F),
    DN(G_5,2,0xC07),
    DN(C_6,2,0x338),
    DN(___,0,0x481),
    DN(___,0,0x481),
    DN(___,0,0x481),
    DN(___,0,0x481),
    DN(___,0,0x481),
    DN(___,0,0x481),
    DN(___,0,0x481),
    DN(___,0,0x482),
    DN(___,0,0x482),
    DN(___,0,0x482),
    DN(___,0,0x482),
    DN(___,0,0xA01),
    DN(___,0,0x482),
    DN(___,0,0xA01),
    DN(___,0,0x482),
    DN(___,0,0xA01),
    DN(___,0,0x482),
    DN(___,0,0xA01),
    DN(___,0,0xA01),
    DN(Ds6,2,0x310),
    DN(___,0,0x481),
    DN(D_6,2,0x330),
    DN(Ds6,2,0xC07),
    DN(C_6,2,0x330),
    DN(D_6,2,0xC07),
    DN(As5,2,0x330),
    DN(C_6,2,0xC07),
    DN(Gs5,2,0x340),
    DN(___,0,0x481),
    DN(___,0,0x481),
    DN(___,0,0x481),
    DN(___,0,0xA02),
    DN(___,0,0x481),
    DN(___,0,0xA02),
    DN(___,0,0xA02),
    DN(D_6,2,0x340),
    DN(___,0,0x481),
    DN(Ds6,2,0x350),
    DN(D_6,2,0xC07),
    DN(D_6,2,0x340),
    DN(Ds6,2,0xC07),
    DN(Gs5,2,0x350),
    DN(D_6,2,0xC07),
    DN(As5,2,0x34F),
    DN(___,0,0x481),
    DN(___,0,0x481),
    DN(___,0,0x481),
    DN(___,0,0x481),
    DN(___,0,0x481),
    DN(___,0,0xA02),
    DN(___,0,0xA02),
    DN(Ds6,2,0x360),
    DN(___,0,0x481),
    DN(D_6,2,0x330),
    DN(Ds6,2,0xC07),
    DN(C_6,2,0x330),
    DN(D_6,2,0xC07),
    DN(As5,2,0x360),
    DN(C_6,2,0xC07),
};
static const unsigned char P2[] = {
    DN(C_4,4,0xC00),
    DN(___,0,0xC00),
    DN(___,0,0xC01),
    DN(___,0,0xC01),
    DN(___,0,0xC02),
    DN(___,0,0xC03),
    DN(___,0,0xC03),
    DN(___,0,0xC04),
    DN(___,0,0xC05),
    DN(___,0,0xC05),
    DN(___,0,0xC06),
    DN(___,0,0xC06),
    DN(___,0,0xC07),
    DN(___,0,0xC08),
    DN(___,0,0xC08),
    DN(___,0,0xC09),
    DN(___,0,0xC0A),
    DN(___,0,0xC0A),
    DN(___,0,0xC0B),
    DN(___,0,0xC0B),
    DN(___,0,0xC0C),
    DN(___,0,0xC0D),
    DN(___,0,0xC0D),
    DN(___,0,0xC0E),
    DN(___,0,0xC0F),
    DN(___,0,0x443),
    DN(___,0,0x443),
    DN(___,0,0x443),
    DN(___,0,0x443),
    DN(___,0,0x443),
    DN(___,0,0x443),
    DN(___,0,0x443),
    DN(Gs3,4,0x34F),
    DN(___,0,0x443),
    DN(___,0,0x443),
    DN(___,0,0x443),
    DN(___,0,0x443),
    DN(___,0,0x443),
    DN(___,0,0x443),
    DN(___,0,0x443),
    DN(___,0,0x443),
    DN(___,0,0x443),
    DN(___,0,0x443),
    DN(___,0,0x443),
    DN(___,0,0x443),
    DN(___,0,0x443),
    DN(___,0,0x443),
    DN(___,0,0x443),
    DN(As3,4,0x34F),
    DN(___,0,0x443),
    DN(___,0,0x443),
    DN(___,0,0x443),
    DN(___,0,0x443),
    DN(___,0,0x443),
    DN(___,0,0x443),
    DN(___,0,0x443),
    DN(___,0,0x443),
    DN(___,0,0x443),
    DN(___,0,0x443),
    DN(___,0,0x443),
    DN(___,0,0x443),
    DN(___,0,0x443),
    DN(___,0,0x443),
    DN(___,0,0x443),
};
static const unsigned char P3[] = {
    DN(___,0,0xF05),
    DN(___,0,0x000),
    DN(___,0,0x000),
    DN(___,0,0x000),
    DN(___,0,0x000),
    DN(___,0,0x000),
    DN(___,0,0x000),
    DN(___,0,0x000),
    DN(___,0,0x000),
    DN(___,0,0x000),
    DN(___,0,0x000),
    DN(___,0,0x000),
    DN(___,0,0x000),
    DN(___,0,0x000),
    DN(___,0,0x000),
    DN(___,0,0x000),
    DN(___,0,0x000),
    DN(___,0,0x000),
    DN(___,0,0x000),
    DN(___,0,0x000),
    DN(___,0,0x000),
    DN(___,0,0x000),
    DN(___,0,0x000),
    DN(___,0,0x000),
    DN(___,0,0x000),
    DN(___,0,0x000),
    DN(___,0,0x000),
    DN(___,0,0x000),
    DN(___,0,0x000),
    DN(___,0,0x000),
    DN(___,0,0x000),
    DN(___,0,0x000),
    DN(D_7,8,0x000),
    DN(___,0,0x000),
    DN(___,0,0x000),
    DN(___,0,0x000),
    DN(___,0,0x000),
    DN(___,0,0x000),
    DN(___,0,0x000),
    DN(___,0,0x000),
    DN(___,0,0x000),
    DN(___,0,0x000),
    DN(___,0,0x000),
    DN(___,0,0x000),
    DN(___,0,0x000),
    DN(___,0,0x000),
    DN(___,0,0x000),
    DN(___,0,0x000),
    DN(E_7,8,0x000),
    DN(___,0,0x000),
    DN(___,0,0x000),
    DN(___,0,0x000),
    DN(___,0,0x000),
    DN(___,0,0x000),
    DN(___,0,0x000),
    DN(___,0,0x000),
    DN(___,0,0x000),
    DN(___,0,0x000),
    DN(___,0,0x000),
    DN(___,0,0x000),
    DN(___,0,0x000),
    DN(___,0,0x000),
    DN(___,0,0x000),
    DN(___,0,0x000),
};
static const unsigned char P5[] = {
    DN(G_5,2,0x481),
    DN(___,0,0x481),
    DN(As5,2,0x30F),
    DN(G_5,2,0xC07),
    DN(C_6,2,0x338),
    DN(___,0,0x481),
    DN(___,0,0x481),
    DN(___,0,0x481),
    DN(___,0,0x481),
    DN(___,0,0x481),
    DN(___,0,0x481),
    DN(___,0,0x481),
    DN(___,0,0x482),
    DN(___,0,0x482),
    DN(___,0,0x482),
    DN(___,0,0x482),
    DN(___,0,0xA01),
    DN(___,0,0x482),
    DN(___,0,0xA01),
    DN(___,0,0x482),
    DN(___,0,0xA01),
    DN(___,0,0x482),
    DN(___,0,0xA01),
    DN(___,0,0xA01),
    DN(Ds6,2,0x310),
    DN(___,0,0x481),
    DN(D_6,2,0x330),
    DN(Ds6,2,0xC07),
    DN(Ds6,2,0x330),
    DN(D_6,2,0xC07),
    DN(D_6,2,0x330),
    DN(Ds6,2,0xC07),
    DN(C_6,2,0x340),
    DN(___,0,0x481),
    DN(___,0,0x481),
    DN(___,0,0x481),
    DN(___,0,0xA02),
    DN(___,0,0x481),
    DN(___,0,0xA02),
    DN(___,0,0xA02),
    DN(D_6,2,0x340),
    DN(___,0,0x481),
    DN(Ds6,2,0x350),
    DN(D_6,2,0xC07),
    DN(D_6,2,0x340),
    DN(Ds6,2,0xC07),
    DN(C_6,2,0x350),
    DN(D_6,2,0xC07),
    DN(D_6,2,0x34F),
    DN(___,0,0x481),
    DN(___,0,0x481),
    DN(___,0,0x481),
    DN(___,0,0x481),
    DN(___,0,0x481),
    DN(___,0,0xA02),
    DN(___,0,0xA02),
    DN(Ds6,2,0x360),
    DN(___,0,0x481),
    DN(D_6,2,0x330),
    DN(Ds6,2,0xC07),
    DN(C_6,2,0x330),
    DN(D_6,2,0xC07),
    DN(As5,2,0x360),
    DN(C_6,2,0xC07),
};
static const unsigned char P6[] = {
    DN(C_4,4,0x443),
    DN(___,0,0x443),
    DN(___,0,0x443),
    DN(___,0,0x443),
    DN(___,0,0x443),
    DN(___,0,0x443),
    DN(___,0,0x443),
    DN(___,0,0x443),
    DN(___,0,0x443),
    DN(___,0,0x443),
    DN(___,0,0x443),
    DN(___,0,0x443),
    DN(___,0,0x443),
    DN(___,0,0x443),
    DN(___,0,0x443),
    DN(___,0,0x443),
    DN(___,0,0x443),
    DN(___,0,0x443),
    DN(___,0,0x443),
    DN(___,0,0x443),
    DN(___,0,0x443),
    DN(___,0,0x443),
    DN(___,0,0x443),
    DN(___,0,0x443),
    DN(___,0,0x443),
    DN(___,0,0x443),
    DN(___,0,0x443),
    DN(___,0,0x443),
    DN(___,0,0x443),
    DN(___,0,0x443),
    DN(___,0,0x443),
    DN(___,0,0x443),
    DN(Gs3,4,0x34F),
    DN(___,0,0x443),
    DN(___,0,0x443),
    DN(___,0,0x443),
    DN(___,0,0x443),
    DN(___,0,0x443),
    DN(___,0,0x443),
    DN(___,0,0x443),
    DN(___,0,0x443),
    DN(___,0,0x443),
    DN(___,0,0x443),
    DN(___,0,0x443),
    DN(___,0,0x443),
    DN(___,0,0x443),
    DN(___,0,0x443),
    DN(___,0,0x443),
    DN(As3,4,0x34F),
    DN(___,0,0x443),
    DN(___,0,0x443),
    DN(___,0,0x443),
    DN(___,0,0x443),
    DN(___,0,0x443),
    DN(___,0,0x443),
    DN(___,0,0x443),
    DN(___,0,0x443),
    DN(___,0,0x443),
    DN(___,0,0x443),
    DN(___,0,0x443),
    DN(___,0,0x443),
    DN(___,0,0x443),
    DN(___,0,0x443),
    DN(___,0,0x443),
};
static const unsigned char P7[] = {
    DN(___,0,0xE00),
    DN(___,0,0x000),
    DN(___,0,0x000),
    DN(___,0,0x000),
    DN(___,0,0x000),
    DN(___,0,0x000),
    DN(___,0,0x000),
    DN(___,0,0x000),
    DN(___,0,0x000),
    DN(___,0,0x000),
    DN(___,0,0x000),
    DN(___,0,0x000),
    DN(___,0,0x000),
    DN(___,0,0x000),
    DN(___,0,0x000),
    DN(___,0,0x000),
    DN(___,0,0x000),
    DN(___,0,0x000),
    DN(___,0,0x000),
    DN(___,0,0x000),
    DN(___,0,0x000),
    DN(___,0,0x000),
    DN(___,0,0x000),
    DN(___,0,0x000),
    DN(___,0,0x000),
    DN(___,0,0x000),
    DN(___,0,0x000),
    DN(___,0,0x000),
    DN(___,0,0x000),
    DN(___,0,0x000),
    DN(___,0,0x000),
    DN(___,0,0x000),
    DN(___,0,0x000),
    DN(___,0,0x000),
    DN(___,0,0x000),
    DN(___,0,0x000),
    DN(___,0,0x000),
    DN(___,0,0x000),
    DN(___,0,0x000),
    DN(___,0,0x000),
    DN(___,0,0x000),
    DN(___,0,0x000),
    DN(___,0,0x000),
    DN(___,0,0x000),
    DN(___,0,0x000),
    DN(___,0,0x000),
    DN(___,0,0x000),
    DN(___,0,0x000),
    DN(___,0,0x000),
    DN(___,0,0x000),
    DN(___,0,0x000),
    DN(___,0,0x000),
    DN(___,0,0x000),
    DN(___,0,0x000),
    DN(___,0,0x000),
    DN(___,0,0x000),
    DN(___,0,0x000),
    DN(___,0,0x000),
    DN(___,0,0x000),
    DN(___,0,0x000),
    DN(___,0,0x000),
    DN(___,0,0x000),
    DN(___,0,0x000),
    DN(___,0,0x000),
};
static const unsigned char P9[] = {
    DN(G_5,2,0x481),
    DN(___,0,0x481),
    DN(As5,2,0x30F),
    DN(G_5,2,0xC07),
    DN(C_6,2,0x338),
    DN(___,0,0x481),
    DN(___,0,0x481),
    DN(___,0,0x481),
    DN(___,0,0x481),
    DN(___,0,0x481),
    DN(___,0,0x481),
    DN(___,0,0x481),
    DN(___,0,0x482),
    DN(___,0,0x482),
    DN(___,0,0x482),
    DN(___,0,0x482),
    DN(___,0,0xA01),
    DN(___,0,0x482),
    DN(___,0,0xA01),
    DN(___,0,0x482),
    DN(___,0,0xA01),
    DN(___,0,0x482),
    DN(___,0,0xA01),
    DN(___,0,0xA01),
    DN(Ds6,2,0x310),
    DN(___,0,0x481),
    DN(D_6,2,0x330),
    DN(Ds6,2,0xC07),
    DN(Ds6,2,0x330),
    DN(D_6,2,0xC07),
    DN(D_6,2,0x330),
    DN(Ds6,2,0xC07),
    DN(Ds6,2,0x340),
    DN(___,0,0x481),
    DN(___,0,0x481),
    DN(___,0,0x481),
    DN(___,0,0xA02),
    DN(___,0,0x481),
    DN(___,0,0xA02),
    DN(___,0,0xA02),
    DN(D_6,2,0x340),
    DN(___,0,0x481),
    DN(Ds6,2,0x350),
    DN(D_6,2,0xC07),
    DN(D_6,2,0x340),
    DN(Ds6,2,0xC07),
    DN(C_6,2,0x350),
    DN(D_6,2,0xC07),
    DN(D_6,2,0x34F),
    DN(___,0,0x481),
    DN(___,0,0x481),
    DN(___,0,0x481),
    DN(___,0,0x481),
    DN(___,0,0x481),
    DN(___,0,0xA02),
    DN(___,0,0xA02),
    DN(Ds6,2,0x360),
    DN(___,0,0x481),
    DN(D_6,2,0x330),
    DN(Ds6,2,0xC07),
    DN(C_6,2,0x330),
    DN(D_6,2,0xC07),
    DN(As5,2,0x360),
    DN(C_6,2,0xC07),
};
static const unsigned char P10[] = {
    DN(C_4,4,0x443),
    DN(___,0,0x443),
    DN(___,0,0x443),
    DN(___,0,0x443),
    DN(___,0,0x443),
    DN(___,0,0x443),
    DN(___,0,0x443),
    DN(___,0,0x443),
    DN(___,0,0x443),
    DN(___,0,0x443),
    DN(___,0,0x443),
    DN(___,0,0x443),
    DN(G_3,4,0x443),
    DN(___,0,0x443),
    DN(___,0,0x443),
    DN(___,0,0x443),
    DN(C_4,4,0x443),
    DN(___,0,0x443),
    DN(___,0,0x443),
    DN(___,0,0x443),
    DN(___,0,0x443),
    DN(___,0,0x443),
    DN(___,0,0x443),
    DN(___,0,0x443),
    DN(___,0,0x443),
    DN(___,0,0x443),
    DN(___,0,0x443),
    DN(___,0,0x443),
    DN(G_3,4,0x443),
    DN(___,0,0x443),
    DN(___,0,0x443),
    DN(___,0,0x443),
    DN(Gs3,4,0x34F),
    DN(___,0,0x443),
    DN(___,0,0x443),
    DN(___,0,0x443),
    DN(___,0,0x443),
    DN(___,0,0x443),
    DN(___,0,0x443),
    DN(___,0,0x443),
    DN(___,0,0x443),
    DN(___,0,0x443),
    DN(___,0,0x443),
    DN(___,0,0x443),
    DN(Ds3,4,0x443),
    DN(___,0,0x443),
    DN(___,0,0x443),
    DN(___,0,0x443),
    DN(As3,4,0x34F),
    DN(___,0,0x443),
    DN(___,0,0x443),
    DN(___,0,0x443),
    DN(___,0,0x443),
    DN(___,0,0x443),
    DN(___,0,0x443),
    DN(___,0,0x443),
    DN(F_3,4,0x443),
    DN(___,0,0x443),
    DN(F_4,4,0x443),
    DN(___,0,0x443),
    DN(As3,4,0x443),
    DN(___,0,0x443),
    DN(As4,4,0x443),
    DN(___,0,0x443),
};
static const unsigned char P11[] = {
    DN(C_7,10,0x027),
    DN(___,0,0x027),
    DN(___,0,0x027),
    DN(___,0,0x027),
    DN(C_7,9,0x037),
    DN(C_7,10,0x037),
    DN(C_7,9,0x037),
    DN(C_7,10,0x037),
    DN(___,0,0x037),
    DN(___,0,0x037),
    DN(___,0,0x037),
    DN(___,0,0x037),
    DN(C_7,9,0x037),
    DN(C_7,10,0x037),
    DN(C_7,9,0x037),
    DN(C_7,10,0x037),
    DN(C_7,10,0x037),
    DN(___,0,0x027),
    DN(___,0,0x027),
    DN(___,0,0x027),
    DN(C_7,9,0x037),
    DN(C_7,10,0x037),
    DN(C_7,9,0x037),
    DN(C_7,10,0x037),
    DN(___,0,0x037),
    DN(___,0,0x037),
    DN(___,0,0x037),
    DN(___,0,0x037),
    DN(C_7,9,0x037),
    DN(C_7,10,0x037),
    DN(C_7,9,0x037),
    DN(C_7,10,0x037),
    DN(C_7,10,0x028),
    DN(___,0,0x028),
    DN(___,0,0x028),
    DN(___,0,0x028),
    DN(C_7,9,0x038),
    DN(C_7,10,0x038),
    DN(C_7,9,0x038),
    DN(C_7,10,0x038),
    DN(___,0,0x038),
    DN(___,0,0x038),
    DN(___,0,0x038),
    DN(___,0,0x038),
    DN(C_7,9,0x038),
    DN(C_7,10,0x038),
    DN(C_7,9,0x038),
    DN(C_7,10,0x038),
    DN(As6,10,0x027),
    DN(___,0,0x027),
    DN(___,0,0x027),
    DN(___,0,0x027),
    DN(As6,9,0x047),
    DN(As6,10,0x047),
    DN(As6,9,0x047),
    DN(As6,10,0x047),
    DN(___,0,0x047),
    DN(___,0,0x047),
    DN(___,0,0x047),
    DN(___,0,0x047),
    DN(As6,9,0x047),
    DN(As6,10,0x047),
    DN(As6,9,0x047),
    DN(As6,10,0x047),
};
static const unsigned char P12[] = {
    DN(C_4,5,0x442),
    DN(___,0,0x442),
    DN(C_5,5,0x442),
    DN(___,0,0x442),
    DN(C_4,5,0x442),
    DN(___,0,0x442),
    DN(C_5,5,0x442),
    DN(___,0,0x442),
    DN(C_4,5,0x442),
    DN(___,0,0x442),
    DN(C_5,5,0x442),
    DN(___,0,0x442),
    DN(C_4,5,0x442),
    DN(___,0,0x442),
    DN(C_5,5,0x442),
    DN(___,0,0x442),
    DN(C_4,5,0x442),
    DN(___,0,0x442),
    DN(C_5,5,0x442),
    DN(___,0,0x442),
    DN(C_4,5,0x442),
    DN(___,0,0x442),
    DN(C_5,5,0x442),
    DN(___,0,0x442),
    DN(C_4,5,0x442),
    DN(___,0,0x442),
    DN(C_5,5,0x442),
    DN(___,0,0x442),
    DN(C_4,5,0x442),
    DN(___,0,0x442),
    DN(C_5,5,0x442),
    DN(___,0,0x442),
    DN(Gs3,5,0x442),
    DN(___,0,0x442),
    DN(Gs4,5,0x442),
    DN(___,0,0x442),
    DN(Gs3,5,0x442),
    DN(___,0,0x442),
    DN(Gs4,5,0x442),
    DN(___,0,0x442),
    DN(Gs3,5,0x442),
    DN(___,0,0x442),
    DN(Gs4,5,0x442),
    DN(___,0,0x442),
    DN(Gs3,5,0x442),
    DN(___,0,0x442),
    DN(Gs4,5,0x442),
    DN(___,0,0x442),
    DN(As3,5,0x442),
    DN(___,0,0x442),
    DN(As4,5,0x442),
    DN(___,0,0x442),
    DN(As3,5,0x442),
    DN(___,0,0x442),
    DN(As4,5,0x442),
    DN(___,0,0x442),
    DN(As3,5,0x442),
    DN(___,0,0x442),
    DN(As4,5,0x442),
    DN(___,0,0x442),
    DN(As3,5,0x442),
    DN(___,0,0x442),
    DN(As4,5,0x442),
    DN(___,0,0x442),
};
static const unsigned char P13[] = {
    DN(F_5,1,0x000),
    DN(___,0,0x000),
    DN(F_6,2,0x000),
    DN(___,0,0x000),
    DN(As5,3,0x000),
    DN(___,0,0x000),
    DN(F_6,2,0x000),
    DN(___,0,0x000),
    DN(F_5,1,0x000),
    DN(___,0,0x000),
    DN(F_5,1,0x000),
    DN(___,0,0x000),
    DN(As5,3,0x000),
    DN(___,0,0x000),
    DN(F_5,1,0x000),
    DN(F_6,2,0x000),
    DN(F_5,1,0x000),
    DN(___,0,0x000),
    DN(F_6,2,0x000),
    DN(___,0,0x000),
    DN(As5,3,0x000),
    DN(___,0,0x000),
    DN(F_6,2,0x000),
    DN(___,0,0x000),
    DN(F_5,1,0x000),
    DN(___,0,0x000),
    DN(F_5,1,0x000),
    DN(___,0,0x000),
    DN(As5,3,0x000),
    DN(___,0,0x000),
    DN(F_5,1,0x000),
    DN(F_6,2,0x000),
    DN(F_5,1,0x000),
    DN(___,0,0x000),
    DN(F_6,2,0x000),
    DN(___,0,0x000),
    DN(As5,3,0x000),
    DN(___,0,0x000),
    DN(F_6,2,0x000),
    DN(___,0,0x000),
    DN(F_5,1,0x000),
    DN(___,0,0x000),
    DN(F_5,1,0x000),
    DN(___,0,0x000),
    DN(As5,3,0x000),
    DN(___,0,0x000),
    DN(F_5,1,0x000),
    DN(F_6,2,0x000),
    DN(F_5,1,0x000),
    DN(___,0,0x000),
    DN(F_6,2,0x000),
    DN(___,0,0x000),
    DN(As5,3,0x000),
    DN(___,0,0x000),
    DN(F_6,2,0x000),
    DN(___,0,0x000),
    DN(F_5,1,0x000),
    DN(___,0,0x000),
    DN(F_5,1,0x000),
    DN(___,0,0x000),
    DN(As5,3,0x000),
    DN(___,0,0x000),
    DN(F_5,1,0x000),
    DN(F_6,2,0x000),
};
static const unsigned char P14[] = {
    DN(G_5,2,0x481),
    DN(___,0,0x481),
    DN(As5,2,0x30F),
    DN(G_5,2,0xC07),
    DN(C_6,2,0x338),
    DN(___,0,0x481),
    DN(___,0,0x481),
    DN(___,0,0x481),
    DN(___,0,0x481),
    DN(___,0,0x481),
    DN(___,0,0x481),
    DN(___,0,0x481),
    DN(___,0,0x482),
    DN(___,0,0x482),
    DN(___,0,0x482),
    DN(___,0,0x482),
    DN(___,0,0xA01),
    DN(___,0,0x482),
    DN(___,0,0xA01),
    DN(___,0,0x482),
    DN(___,0,0xA01),
    DN(___,0,0x482),
    DN(___,0,0xA01),
    DN(___,0,0xA01),
    DN(Ds6,2,0x310),
    DN(___,0,0x481),
    DN(D_6,2,0x330),
    DN(Ds6,2,0xC07),
    DN(Ds6,2,0x330),
    DN(D_6,2,0xC07),
    DN(D_6,2,0x330),
    DN(Ds6,2,0xC07),
    DN(Ds6,2,0x340),
    DN(___,0,0x481),
    DN(___,0,0x481),
    DN(___,0,0x481),
    DN(___,0,0xA02),
    DN(___,0,0x481),
    DN(___,0,0xA02),
    DN(___,0,0xA02),
    DN(D_6,2,0x340),
    DN(___,0,0x481),
    DN(Ds6,2,0x350),
    DN(D_6,2,0xC07),
    DN(D_6,2,0x340),
    DN(Ds6,2,0xC07),
    DN(C_6,2,0x350),
    DN(D_6,2,0xC07),
    DN(D_6,2,0x34F),
    DN(___,0,0x481),
    DN(___,0,0x481),
    DN(___,0,0x481),
    DN(___,0,0x481),
    DN(___,0,0x481),
    DN(___,0,0xA02),
    DN(___,0,0xA02),
    DN(___,0,0xA02),
    DN(___,0,0xA02),
    DN(D_6,2,0x481),
    DN(___,0,0x481),
    DN(As5,2,0x481),
    DN(___,0,0xA01),
    DN(___,0,0xA01),
    DN(___,0,0xA01),
};
static const unsigned char P15[] = {
    DN(C_4,5,0x442),
    DN(___,0,0x442),
    DN(C_5,5,0x442),
    DN(___,0,0x442),
    DN(C_4,5,0x442),
    DN(___,0,0x442),
    DN(C_5,5,0x442),
    DN(___,0,0x442),
    DN(C_4,5,0x442),
    DN(___,0,0x442),
    DN(C_5,5,0x442),
    DN(___,0,0x442),
    DN(C_4,5,0x442),
    DN(___,0,0x442),
    DN(C_5,5,0x442),
    DN(___,0,0x442),
    DN(C_4,5,0x442),
    DN(___,0,0x442),
    DN(C_5,5,0x442),
    DN(___,0,0x442),
    DN(C_4,5,0x442),
    DN(___,0,0x442),
    DN(C_5,5,0x442),
    DN(___,0,0x442),
    DN(C_4,5,0x442),
    DN(___,0,0x442),
    DN(C_5,5,0x442),
    DN(___,0,0x442),
    DN(C_4,5,0x442),
    DN(___,0,0x442),
    DN(C_5,5,0x442),
    DN(___,0,0x442),
    DN(Gs3,5,0x442),
    DN(___,0,0x442),
    DN(Gs4,5,0x442),
    DN(___,0,0x442),
    DN(Gs3,5,0x442),
    DN(___,0,0x442),
    DN(Gs4,5,0x442),
    DN(___,0,0x442),
    DN(Gs3,5,0x442),
    DN(___,0,0x442),
    DN(Gs4,5,0x442),
    DN(___,0,0x442),
    DN(Gs3,5,0x442),
    DN(___,0,0x442),
    DN(Gs4,5,0x442),
    DN(___,0,0x442),
    DN(As4,5,0xC0F),
    DN(___,0,0xC0A),
    DN(___,0,0xC05),
    DN(___,0,0xC00),
    DN(As4,5,0xC0C),
    DN(___,0,0xC08),
    DN(___,0,0xC04),
    DN(___,0,0xC00),
    DN(As5,5,0x210),
    DN(___,0,0x210),
    DN(___,0,0x210),
    DN(___,0,0x210),
    DN(As4,5,0x442),
    DN(___,0,0x442),
    DN(F_4,5,0x442),
    DN(___,0,0x442),
};
static const unsigned char P16[] = {
    DN(F_5,1,0x000),
    DN(___,0,0x000),
    DN(F_6,2,0x000),
    DN(___,0,0x000),
    DN(As5,3,0x000),
    DN(___,0,0x000),
    DN(F_6,2,0x000),
    DN(___,0,0x000),
    DN(F_5,1,0x000),
    DN(___,0,0x000),
    DN(F_5,1,0x000),
    DN(___,0,0x000),
    DN(As5,3,0x000),
    DN(___,0,0x000),
    DN(F_5,1,0x000),
    DN(F_6,2,0x000),
    DN(F_5,1,0x000),
    DN(___,0,0x000),
    DN(F_6,2,0x000),
    DN(___,0,0x000),
    DN(As5,3,0x000),
    DN(___,0,0x000),
    DN(F_6,2,0x000),
    DN(___,0,0x000),
    DN(F_5,1,0x000),
    DN(___,0,0x000),
    DN(F_5,1,0x000),
    DN(___,0,0x000),
    DN(As5,3,0x000),
    DN(___,0,0x000),
    DN(F_5,1,0x000),
    DN(F_6,2,0x000),
    DN(F_5,1,0x000),
    DN(___,0,0x000),
    DN(F_6,2,0x000),
    DN(___,0,0x000),
    DN(As5,3,0x000),
    DN(___,0,0x000),
    DN(F_6,2,0x000),
    DN(___,0,0x000),
    DN(F_5,1,0x000),
    DN(___,0,0x000),
    DN(F_5,1,0x000),
    DN(___,0,0x000),
    DN(As5,3,0x000),
    DN(___,0,0x000),
    DN(F_5,1,0x000),
    DN(F_6,2,0x000),
    DN(F_5,1,0x000),
    DN(___,0,0x000),
    DN(___,0,0x000),
    DN(___,0,0x000),
    DN(F_6,2,0x000),
    DN(___,0,0x000),
    DN(___,0,0x000),
    DN(___,0,0x000),
    DN(F_6,2,0x000),
    DN(___,0,0x000),
    DN(F_6,2,0x000),
    DN(___,0,0x000),
    DN(As5,3,0x000),
    DN(___,0,0x000),
    DN(As5,3,0x000),
    DN(___,0,0x000),
};
static const unsigned char P18[] = {
    DN(G_5,2,0x481),
    DN(___,0,0x481),
    DN(___,0,0xA02),
    DN(___,0,0xA02),
    DN(Ds5,2,0x481),
    DN(___,0,0x481),
    DN(___,0,0xA02),
    DN(___,0,0x481),
    DN(___,0,0xA02),
    DN(___,0,0xA02),
    DN(Gs5,2,0x481),
    DN(___,0,0xA02),
    DN(___,0,0xA02),
    DN(Gs5,2,0xC1E),
    DN(As5,2,0x30F),
    DN(___,0,0x30F),
    DN(G_5,2,0x481),
    DN(___,0,0x481),
    DN(___,0,0x481),
    DN(___,0,0x481),
    DN(___,0,0xA02),
    DN(___,0,0x481),
    DN(___,0,0xA02),
    DN(___,0,0xA02),
    DN(F_5,2,0x31F),
    DN(___,0,0x481),
    DN(___,0,0xA02),
    DN(___,0,0x481),
    DN(___,0,0xA02),
    DN(___,0,0x481),
    DN(___,0,0xA02),
    DN(___,0,0xA02),
    DN(G_5,2,0x481),
    DN(___,0,0x481),
    DN(___,0,0xA02),
    DN(___,0,0xA02),
    DN(Ds5,2,0x481),
    DN(___,0,0x481),
    DN(___,0,0xA02),
    DN(___,0,0x481),
    DN(___,0,0xA02),
    DN(___,0,0x481),
    DN(___,0,0x202),
    DN(___,0,0x202),
    DN(Ds5,2,0xC09),
    DN(___,0,0x481),
    DN(___,0,0xA02),
    DN(___,0,0x481),
    DN(G_5,2,0xC09),
    DN(___,0,0x481),
    DN(___,0,0xA02),
    DN(___,0,0x481),
    DN(Ds5,2,0xC0A),
    DN(___,0,0x481),
    DN(___,0,0xA02),
    DN(___,0,0x481),
    DN(D_5,2,0x30F),
    DN(___,0,0x30F),
    DN(___,0,0x481),
    DN(___,0,0x481),
    DN(F_5,2,0x31F),
    DN(___,0,0x481),
    DN(___,0,0x481),
    DN(___,0,0x481),
};
static const unsigned char P19[] = {
    DN(Ds4,4,0x4A2),
    DN(___,0,0x4A2),
    DN(Ds4,4,0x4A2),
    DN(___,0,0x4A2),
    DN(Ds5,4,0x4A2),
    DN(___,0,0x4A2),
    DN(Ds4,4,0x4A2),
    DN(___,0,0x4A2),
    DN(Gs4,4,0x4A2),
    DN(___,0,0x4A2),
    DN(Gs4,4,0x4A2),
    DN(___,0,0x4A2),
    DN(Gs5,4,0x4A2),
    DN(___,0,0x4A2),
    DN(Gs4,4,0x4A2),
    DN(___,0,0x4A2),
    DN(C_5,4,0x4A2),
    DN(___,0,0x4A2),
    DN(C_5,4,0x4A2),
    DN(___,0,0x4A2),
    DN(C_6,4,0x4A2),
    DN(___,0,0x4A2),
    DN(C_5,4,0x4A2),
    DN(___,0,0x4A2),
    DN(As4,4,0x4A2),
    DN(___,0,0x4A2),
    DN(As4,4,0x4A2),
    DN(___,0,0x4A2),
    DN(As5,4,0x4A2),
    DN(___,0,0x4A2),
    DN(As4,4,0x4A2),
    DN(___,0,0x4A2),
    DN(Ds4,4,0x4A2),
    DN(___,0,0x4A2),
    DN(Ds4,4,0x4A2),
    DN(___,0,0x4A2),
    DN(Ds5,4,0x4A2),
    DN(___,0,0x4A2),
    DN(Ds4,4,0x4A2),
    DN(___,0,0x4A2),
    DN(Gs4,4,0x4A2),
    DN(___,0,0x4A2),
    DN(Gs4,4,0x4A2),
    DN(___,0,0x4A2),
    DN(Gs5,4,0x4A2),
    DN(___,0,0x4A2),
    DN(Gs4,4,0x4A2),
    DN(___,0,0x4A2),
    DN(C_5,4,0x4A2),
    DN(___,0,0x4A2),
    DN(C_5,4,0x4A2),
    DN(___,0,0x4A2),
    DN(C_6,4,0x4A2),
    DN(___,0,0x4A2),
    DN(C_5,4,0x4A2),
    DN(___,0,0x4A2),
    DN(As4,4,0x4A2),
    DN(___,0,0x4A2),
    DN(As4,4,0x4A2),
    DN(___,0,0x4A2),
    DN(As5,4,0x4A2),
    DN(___,0,0x4A2),
    DN(As4,4,0x4A2),
    DN(___,0,0x4A2),
};
static const unsigned char P20[] = {
    DN(F_5,1,0x000),
    DN(___,0,0x000),
    DN(F_6,2,0x000),
    DN(___,0,0x000),
    DN(F_6,2,0x000),
    DN(___,0,0x000),
    DN(F_5,1,0x000),
    DN(___,0,0x000),
    DN(As5,3,0x000),
    DN(___,0,0x000),
    DN(F_6,2,0x000),
    DN(F_6,2,0x000),
    DN(F_5,1,0x000),
    DN(___,0,0x000),
    DN(As5,3,0x000),
    DN(___,0,0x000),
    DN(F_5,1,0x000),
    DN(___,0,0x000),
    DN(As5,3,0x000),
    DN(___,0,0x000),
    DN(F_5,1,0x000),
    DN(___,0,0x000),
    DN(F_6,2,0x000),
    DN(___,0,0x000),
    DN(As5,3,0x000),
    DN(___,0,0x000),
    DN(F_6,2,0x000),
    DN(F_6,2,0x000),
    DN(F_5,1,0x000),
    DN(___,0,0x000),
    DN(F_5,1,0x000),
    DN(___,0,0x000),
    DN(F_5,1,0x000),
    DN(___,0,0x000),
    DN(F_6,2,0x000),
    DN(___,0,0x000),
    DN(F_6,2,0x000),
    DN(___,0,0x000),
    DN(F_5,1,0x000),
    DN(___,0,0x000),
    DN(As5,3,0x000),
    DN(___,0,0x000),
    DN(F_6,2,0x000),
    DN(F_6,2,0x000),
    DN(F_5,1,0x000),
    DN(___,0,0x000),
    DN(As5,3,0x000),
    DN(___,0,0x000),
    DN(F_5,1,0x000),
    DN(___,0,0x000),
    DN(As5,3,0x000),
    DN(___,0,0x000),
    DN(F_5,1,0x000),
    DN(___,0,0x000),
    DN(F_6,2,0x000),
    DN(___,0,0x000),
    DN(As5,3,0x000),
    DN(___,0,0x000),
    DN(F_6,2,0x000),
    DN(F_6,2,0x000),
    DN(F_5,1,0x000),
    DN(___,0,0x000),
    DN(F_5,1,0x000),
    DN(___,0,0x000),
};
static const unsigned char P21[] = {
    DN(Ds7,10,0x047),
    DN(___,0,0x047),
    DN(___,0,0x047),
    DN(___,0,0x047),
    DN(Ds7,9,0x047),
    DN(Ds7,10,0x047),
    DN(Ds7,9,0x047),
    DN(Ds7,10,0x047),
    DN(C_7,10,0x038),
    DN(___,0,0x038),
    DN(___,0,0x038),
    DN(___,0,0x038),
    DN(C_7,9,0x038),
    DN(C_7,10,0x038),
    DN(C_7,9,0x038),
    DN(C_7,10,0x038),
    DN(C_7,10,0x037),
    DN(___,0,0x037),
    DN(___,0,0x037),
    DN(___,0,0x037),
    DN(C_7,9,0x037),
    DN(C_7,10,0x037),
    DN(C_7,9,0x037),
    DN(C_7,10,0x037),
    DN(As6,10,0x047),
    DN(___,0,0x047),
    DN(___,0,0x047),
    DN(___,0,0x047),
    DN(As6,9,0x047),
    DN(As6,10,0x047),
    DN(As6,9,0x047),
    DN(As6,10,0x047),
    DN(Ds7,10,0x047),
    DN(___,0,0x047),
    DN(___,0,0x047),
    DN(___,0,0x047),
    DN(Ds7,9,0x047),
    DN(Ds7,10,0x047),
    DN(Ds7,9,0x047),
    DN(Ds7,10,0x047),
    DN(C_7,10,0x038),
    DN(___,0,0x038),
    DN(___,0,0x038),
    DN(___,0,0x038),
    DN(C_7,9,0x038),
    DN(C_7,10,0x038),
    DN(C_7,9,0x038),
    DN(C_7,10,0x038),
    DN(C_7,10,0x037),
    DN(___,0,0x037),
    DN(___,0,0x037),
    DN(___,0,0x037),
    DN(C_7,9,0x037),
    DN(C_7,10,0x037),
    DN(C_7,9,0x037),
    DN(C_7,10,0x037),
    DN(As6,10,0x047),
    DN(___,0,0x047),
    DN(___,0,0x047),
    DN(___,0,0x047),
    DN(As6,9,0x047),
    DN(As6,10,0x047),
    DN(As6,9,0x047),
    DN(As6,10,0x047),
};
static const unsigned char P22[] = {
    DN(G_5,2,0x481),
    DN(___,0,0x481),
    DN(___,0,0xA02),
    DN(___,0,0xA02),
    DN(Ds5,2,0x481),
    DN(___,0,0x481),
    DN(___,0,0xA02),
    DN(___,0,0x481),
    DN(___,0,0xA02),
    DN(___,0,0xA02),
    DN(Gs5,2,0x481),
    DN(___,0,0xA02),
    DN(___,0,0xA02),
    DN(Gs5,2,0xC1E),
    DN(As5,2,0x30F),
    DN(___,0,0x30F),
    DN(G_5,2,0x481),
    DN(___,0,0x481),
    DN(___,0,0x481),
    DN(___,0,0x481),
    DN(___,0,0xA02),
    DN(___,0,0x481),
    DN(___,0,0xA02),
    DN(___,0,0xA02),
    DN(F_5,2,0x31F),
    DN(___,0,0x481),
    DN(___,0,0xA02),
    DN(___,0,0x481),
    DN(___,0,0xA02),
    DN(___,0,0x481),
    DN(___,0,0xA02),
    DN(___,0,0xA02),
    DN(G_5,2,0x481),
    DN(___,0,0x481),
    DN(___,0,0xA02),
    DN(___,0,0xA02),
    DN(Ds5,2,0x481),
    DN(___,0,0x481),
    DN(___,0,0xA02),
    DN(___,0,0x481),
    DN(___,0,0xA02),
    DN(___,0,0x481),
    DN(___,0,0x202),
    DN(___,0,0x202),
    DN(Ds5,2,0xC09),
    DN(___,0,0x481),
    DN(___,0,0xA02),
    DN(___,0,0x481),
    DN(G_5,2,0xC09),
    DN(___,0,0x481),
    DN(___,0,0xA02),
    DN(___,0,0x481),
    DN(Ds5,2,0xC0A),
    DN(___,0,0x481),
    DN(___,0,0xA02),
    DN(___,0,0x481),
    DN(Ds6,2,0x3F0),
    DN(___,0,0x481),
    DN(D_6,2,0x340),
    DN(Ds6,2,0xC09),
    DN(C_6,2,0x340),
    DN(D_6,2,0xC09),
    DN(As5,2,0x360),
    DN(C_6,2,0xB04),
};

static const unsigned char itNoiseSP1[] = {
    DN(___,0,0x000),
    DN(51,0,0x000),
    DN(42,0,0x000),
    DN(43,0,0x000),
    DN(42,5,0x000),
    DN(41,0,0x000),
    DN(39,0,0x000),
    DN(___,0,0x000),
    DN(___,0,0x000),
    DN(___,0,0x000),
    DN(___,0,0x000),
    DN(___,0,0x000),
    DN(___,0,0x000),
    DN(___,0,0x000),
    DN(___,0,0x000),
    DN(___,0,0x000),
    DN(___,0,0x000),
    DN(___,0,0x000),
    DN(___,0,0x000),
    DN(___,0,0x000),
    DN(___,0,0x000),
    DN(___,0,0x000),
    DN(___,0,0x000),
    DN(___,0,0x000),
    DN(___,0,0x000),
    DN(___,0,0x000),
    DN(___,0,0x000),
    DN(___,0,0x000),
    DN(___,0,0x000),
    DN(___,0,0x000),
    DN(___,0,0x000),
    DN(___,1,0x000),
};
static const unsigned char itNoiseSP2[] = {
    DN(___,0,0x000),
    DN(59,0,0x000),
    DN(58,0,0x000),
    DN(58,0,0x000),
    DN(58,5,0x000),
    DN(58,0,0x000),
    DN(58,0,0x000),
    DN(___,0,0x000),
    DN(___,0,0x000),
    DN(___,0,0x000),
    DN(___,0,0x000),
    DN(___,0,0x000),
    DN(___,0,0x000),
    DN(___,0,0x000),
    DN(___,0,0x000),
    DN(___,0,0x000),
    DN(___,0,0x000),
    DN(___,0,0x000),
    DN(___,0,0x000),
    DN(___,0,0x000),
    DN(___,0,0x000),
    DN(___,0,0x000),
    DN(___,0,0x000),
    DN(___,0,0x000),
    DN(___,0,0x000),
    DN(___,0,0x000),
    DN(___,0,0x000),
    DN(___,0,0x000),
    DN(___,0,0x000),
    DN(___,0,0x000),
    DN(___,0,0x000),
    DN(___,1,0x000),
};
static const unsigned char itNoiseSP3[] = {
    DN(___,0,0x000),
    DN(59,0,0x000),
    DN(56,0,0x000),
    DN(53,0,0x000),
    DN(47,5,0x000),
    DN(38,0,0x000),
    DN(32,0,0x000),
    DN(___,0,0x000),
    DN(___,0,0x000),
    DN(___,0,0x000),
    DN(___,0,0x000),
    DN(___,0,0x000),
    DN(___,0,0x000),
    DN(___,0,0x000),
    DN(___,0,0x000),
    DN(___,0,0x000),
    DN(___,0,0x000),
    DN(___,0,0x000),
    DN(___,0,0x000),
    DN(___,0,0x000),
    DN(___,0,0x000),
    DN(___,0,0x000),
    DN(___,0,0x000),
    DN(___,0,0x000),
    DN(___,0,0x000),
    DN(___,0,0x000),
    DN(___,0,0x000),
    DN(___,0,0x000),
    DN(___,0,0x000),
    DN(___,0,0x000),
    DN(___,0,0x000),
    DN(___,1,0x000),
};
static const unsigned char itNoiseSP4[] = {
    DN(___,0,0x000),
    DN(36,0,0x000),
    DN(36,0,0x000),
    DN(36,0,0x000),
    DN(36,5,0x000),
    DN(36,0,0x000),
    DN(36,0,0x000),
    DN(___,0,0x000),
    DN(___,0,0x000),
    DN(___,0,0x000),
    DN(___,0,0x000),
    DN(___,0,0x000),
    DN(___,0,0x000),
    DN(___,0,0x000),
    DN(___,0,0x000),
    DN(___,0,0x000),
    DN(___,0,0x000),
    DN(___,0,0x000),
    DN(___,0,0x000),
    DN(___,0,0x000),
    DN(___,0,0x000),
    DN(___,0,0x000),
    DN(___,0,0x000),
    DN(___,0,0x000),
    DN(___,0,0x000),
    DN(___,0,0x000),
    DN(___,0,0x000),
    DN(___,0,0x000),
    DN(___,0,0x000),
    DN(___,0,0x000),
    DN(___,0,0x000),
    DN(___,1,0x000),
};
static const unsigned char itNoiseSP5[] = {
    DN(___,0,0x000),
    DN(36,0,0x000),
    DN(36,0,0x000),
    DN(36,0,0x000),
    DN(36,5,0x000),
    DN(36,0,0x000),
    DN(36,0,0x000),
    DN(___,0,0x000),
    DN(___,0,0x000),
    DN(___,0,0x000),
    DN(___,0,0x000),
    DN(___,0,0x000),
    DN(___,0,0x000),
    DN(___,0,0x000),
    DN(___,0,0x000),
    DN(___,0,0x000),
    DN(___,0,0x000),
    DN(___,0,0x000),
    DN(___,0,0x000),
    DN(___,0,0x000),
    DN(___,0,0x000),
    DN(___,0,0x000),
    DN(___,0,0x000),
    DN(___,0,0x000),
    DN(___,0,0x000),
    DN(___,0,0x000),
    DN(___,0,0x000),
    DN(___,0,0x000),
    DN(___,0,0x000),
    DN(___,0,0x000),
    DN(___,0,0x000),
    DN(___,1,0x000),
};
static const unsigned char itNoiseSP6[] = {
    DN(___,0,0x000),
    DN(36,0,0x000),
    DN(36,0,0x000),
    DN(36,0,0x000),
    DN(36,5,0x000),
    DN(36,0,0x000),
    DN(36,0,0x000),
    DN(___,0,0x000),
    DN(___,0,0x000),
    DN(___,0,0x000),
    DN(___,0,0x000),
    DN(___,0,0x000),
    DN(___,0,0x000),
    DN(___,0,0x000),
    DN(___,0,0x000),
    DN(___,0,0x000),
    DN(___,0,0x000),
    DN(___,0,0x000),
    DN(___,0,0x000),
    DN(___,0,0x000),
    DN(___,0,0x000),
    DN(___,0,0x000),
    DN(___,0,0x000),
    DN(___,0,0x000),
    DN(___,0,0x000),
    DN(___,0,0x000),
    DN(___,0,0x000),
    DN(___,0,0x000),
    DN(___,0,0x000),
    DN(___,0,0x000),
    DN(___,0,0x000),
    DN(___,1,0x000),
};
static const unsigned char itNoiseSP7[] = {
    DN(___,0,0x000),
    DN(36,0,0x000),
    DN(36,0,0x000),
    DN(36,0,0x000),
    DN(36,5,0x000),
    DN(36,0,0x000),
    DN(36,0,0x000),
    DN(___,0,0x000),
    DN(___,0,0x000),
    DN(___,0,0x000),
    DN(___,0,0x000),
    DN(___,0,0x000),
    DN(___,0,0x000),
    DN(___,0,0x000),
    DN(___,0,0x000),
    DN(___,0,0x000),
    DN(___,0,0x000),
    DN(___,0,0x000),
    DN(___,0,0x000),
    DN(___,0,0x000),
    DN(___,0,0x000),
    DN(___,0,0x000),
    DN(___,0,0x000),
    DN(___,0,0x000),
    DN(___,0,0x000),
    DN(___,0,0x000),
    DN(___,0,0x000),
    DN(___,0,0x000),
    DN(___,0,0x000),
    DN(___,0,0x000),
    DN(___,0,0x000),
    DN(___,1,0x000),
};
static const unsigned char itNoiseSP8[] = {
    DN(___,0,0x000),
    DN(36,0,0x000),
    DN(36,0,0x000),
    DN(36,0,0x000),
    DN(36,5,0x000),
    DN(36,0,0x000),
    DN(36,0,0x000),
    DN(___,0,0x000),
    DN(___,0,0x000),
    DN(___,0,0x000),
    DN(___,0,0x000),
    DN(___,0,0x000),
    DN(___,0,0x000),
    DN(___,0,0x000),
    DN(___,0,0x000),
    DN(___,0,0x000),
    DN(___,0,0x000),
    DN(___,0,0x000),
    DN(___,0,0x000),
    DN(___,0,0x000),
    DN(___,0,0x000),
    DN(___,0,0x000),
    DN(___,0,0x000),
    DN(___,0,0x000),
    DN(___,0,0x000),
    DN(___,0,0x000),
    DN(___,0,0x000),
    DN(___,0,0x000),
    DN(___,0,0x000),
    DN(___,0,0x000),
    DN(___,0,0x000),
    DN(___,1,0x000),
};
static const unsigned char itNoiseSP9[] = {
    DN(___,0,0x000),
    DN(36,0,0x000),
    DN(36,0,0x000),
    DN(36,0,0x000),
    DN(36,5,0x000),
    DN(36,0,0x000),
    DN(36,0,0x000),
    DN(___,0,0x000),
    DN(___,0,0x000),
    DN(___,0,0x000),
    DN(___,0,0x000),
    DN(___,0,0x000),
    DN(___,0,0x000),
    DN(___,0,0x000),
    DN(___,0,0x000),
    DN(___,0,0x000),
    DN(___,0,0x000),
    DN(___,0,0x000),
    DN(___,0,0x000),
    DN(___,0,0x000),
    DN(___,0,0x000),
    DN(___,0,0x000),
    DN(___,0,0x000),
    DN(___,0,0x000),
    DN(___,0,0x000),
    DN(___,0,0x000),
    DN(___,0,0x000),
    DN(___,0,0x000),
    DN(___,0,0x000),
    DN(___,0,0x000),
    DN(___,0,0x000),
    DN(___,1,0x000),
};
static const unsigned char itNoiseSP10[] = {
    DN(___,0,0x000),
    DN(36,0,0x000),
    DN(36,0,0x000),
    DN(36,0,0x000),
    DN(36,5,0x000),
    DN(36,0,0x000),
    DN(36,0,0x000),
    DN(___,0,0x000),
    DN(___,0,0x000),
    DN(___,0,0x000),
    DN(___,0,0x000),
    DN(___,0,0x000),
    DN(___,0,0x000),
    DN(___,0,0x000),
    DN(___,0,0x000),
    DN(___,0,0x000),
    DN(___,0,0x000),
    DN(___,0,0x000),
    DN(___,0,0x000),
    DN(___,0,0x000),
    DN(___,0,0x000),
    DN(___,0,0x000),
    DN(___,0,0x000),
    DN(___,0,0x000),
    DN(___,0,0x000),
    DN(___,0,0x000),
    DN(___,0,0x000),
    DN(___,0,0x000),
    DN(___,0,0x000),
    DN(___,0,0x000),
    DN(___,0,0x000),
    DN(___,1,0x000),
};
static const unsigned char itNoiseSP11[] = {
    DN(___,0,0x000),
    DN(36,0,0x000),
    DN(36,0,0x000),
    DN(36,0,0x000),
    DN(36,5,0x000),
    DN(36,0,0x000),
    DN(36,0,0x000),
    DN(___,0,0x000),
    DN(___,0,0x000),
    DN(___,0,0x000),
    DN(___,0,0x000),
    DN(___,0,0x000),
    DN(___,0,0x000),
    DN(___,0,0x000),
    DN(___,0,0x000),
    DN(___,0,0x000),
    DN(___,0,0x000),
    DN(___,0,0x000),
    DN(___,0,0x000),
    DN(___,0,0x000),
    DN(___,0,0x000),
    DN(___,0,0x000),
    DN(___,0,0x000),
    DN(___,0,0x000),
    DN(___,0,0x000),
    DN(___,0,0x000),
    DN(___,0,0x000),
    DN(___,0,0x000),
    DN(___,0,0x000),
    DN(___,0,0x000),
    DN(___,0,0x000),
    DN(___,1,0x000),
};
static const unsigned char itNoiseSP12[] = {
    DN(___,0,0x000),
    DN(36,0,0x000),
    DN(36,0,0x000),
    DN(36,0,0x000),
    DN(36,5,0x000),
    DN(36,0,0x000),
    DN(36,0,0x000),
    DN(___,0,0x000),
    DN(___,0,0x000),
    DN(___,0,0x000),
    DN(___,0,0x000),
    DN(___,0,0x000),
    DN(___,0,0x000),
    DN(___,0,0x000),
    DN(___,0,0x000),
    DN(___,0,0x000),
    DN(___,0,0x000),
    DN(___,0,0x000),
    DN(___,0,0x000),
    DN(___,0,0x000),
    DN(___,0,0x000),
    DN(___,0,0x000),
    DN(___,0,0x000),
    DN(___,0,0x000),
    DN(___,0,0x000),
    DN(___,0,0x000),
    DN(___,0,0x000),
    DN(___,0,0x000),
    DN(___,0,0x000),
    DN(___,0,0x000),
    DN(___,0,0x000),
    DN(___,1,0x000),
};
static const unsigned char itNoiseSP13[] = {
    DN(___,0,0x000),
    DN(36,0,0x000),
    DN(36,0,0x000),
    DN(36,0,0x000),
    DN(36,5,0x000),
    DN(36,0,0x000),
    DN(36,0,0x000),
    DN(___,0,0x000),
    DN(___,0,0x000),
    DN(___,0,0x000),
    DN(___,0,0x000),
    DN(___,0,0x000),
    DN(___,0,0x000),
    DN(___,0,0x000),
    DN(___,0,0x000),
    DN(___,0,0x000),
    DN(___,0,0x000),
    DN(___,0,0x000),
    DN(___,0,0x000),
    DN(___,0,0x000),
    DN(___,0,0x000),
    DN(___,0,0x000),
    DN(___,0,0x000),
    DN(___,0,0x000),
    DN(___,0,0x000),
    DN(___,0,0x000),
    DN(___,0,0x000),
    DN(___,0,0x000),
    DN(___,0,0x000),
    DN(___,0,0x000),
    DN(___,0,0x000),
    DN(___,1,0x000),
};
static const unsigned char itNoiseSP14[] = {
    DN(___,0,0x000),
    DN(36,0,0x000),
    DN(36,0,0x000),
    DN(36,0,0x000),
    DN(36,5,0x000),
    DN(36,0,0x000),
    DN(36,0,0x000),
    DN(___,0,0x000),
    DN(___,0,0x000),
    DN(___,0,0x000),
    DN(___,0,0x000),
    DN(___,0,0x000),
    DN(___,0,0x000),
    DN(___,0,0x000),
    DN(___,0,0x000),
    DN(___,0,0x000),
    DN(___,0,0x000),
    DN(___,0,0x000),
    DN(___,0,0x000),
    DN(___,0,0x000),
    DN(___,0,0x000),
    DN(___,0,0x000),
    DN(___,0,0x000),
    DN(___,0,0x000),
    DN(___,0,0x000),
    DN(___,0,0x000),
    DN(___,0,0x000),
    DN(___,0,0x000),
    DN(___,0,0x000),
    DN(___,0,0x000),
    DN(___,0,0x000),
    DN(___,1,0x000),
};
static const unsigned char itNoiseSP15[] = {
    DN(___,0,0x000),
    DN(36,0,0x000),
    DN(36,0,0x000),
    DN(36,0,0x000),
    DN(36,5,0x000),
    DN(36,0,0x000),
    DN(36,0,0x000),
    DN(___,0,0x000),
    DN(___,0,0x000),
    DN(___,0,0x000),
    DN(___,0,0x000),
    DN(___,0,0x000),
    DN(___,0,0x000),
    DN(___,0,0x000),
    DN(___,0,0x000),
    DN(___,0,0x000),
    DN(___,0,0x000),
    DN(___,0,0x000),
    DN(___,0,0x000),
    DN(___,0,0x000),
    DN(___,0,0x000),
    DN(___,0,0x000),
    DN(___,0,0x000),
    DN(___,0,0x000),
    DN(___,0,0x000),
    DN(___,0,0x000),
    DN(___,0,0x000),
    DN(___,0,0x000),
    DN(___,0,0x000),
    DN(___,0,0x000),
    DN(___,0,0x000),
    DN(___,1,0x000),
};
static const unsigned char* const order1[] = {P0,P0,P0,P11,P11,P11,P11,P21,P21};
static const unsigned char* const order2[] = {P1,P5,P9,P1,P5,P1,P14,P18,P22};
static const unsigned char* const order3[] = {P2,P6,P10,P12,P12,P12,P15,P19,P19};
static const unsigned char* const order4[] = {P7,P7,P3,P13,P13,P13,P16,P20,P20};

static const hUGEDutyInstr_t duty_instruments[] = {
    {8,0,240,0,128},
    {8,64,240,0,128},
    {8,128,240,0,128},
    {8,192,240,0,128},
    {8,0,241,0,128},
    {8,64,241,0,128},
    {8,128,241,0,128},
    {8,192,241,0,128},
    {8,192,192,0,128},
    {8,192,64,0,128},
    {8,128,240,0,128},
    {8,128,240,0,128},
    {8,128,240,0,128},
    {8,128,240,0,128},
    {8,128,240,0,128},
};
static const hUGEWaveInstr_t wave_instruments[] = {
    {0,32,0,0,128},
    {0,32,1,0,128},
    {0,32,2,0,128},
    {0,32,3,0,128},
    {0,32,4,0,128},
    {0,32,5,0,128},
    {0,32,6,0,128},
    {0,32,7,0,128},
    {0,32,8,0,128},
    {0,32,9,0,128},
    {0,32,10,0,128},
    {0,32,11,0,128},
    {0,32,12,0,128},
    {0,32,13,0,128},
    {0,32,14,0,128},
};
static const hUGENoiseInstr_t noise_instruments[] = {
    {241,itNoiseSP1,128,0,0},
    {241,itNoiseSP2,119,0,0},
    {241,itNoiseSP3,0,0,0},
    {240,itNoiseSP4,0,0,0},
    {240,itNoiseSP5,0,0,0},
    {240,itNoiseSP6,0,0,0},
    {240,itNoiseSP7,0,0,0},
    {14,itNoiseSP8,128,0,0},
    {240,itNoiseSP9,0,0,0},
    {240,itNoiseSP10,0,0,0},
    {240,itNoiseSP11,0,0,0},
    {240,itNoiseSP12,0,0,0},
    {240,itNoiseSP13,0,0,0},
    {240,itNoiseSP14,0,0,0},
    {240,itNoiseSP15,0,0,0},
};

static const unsigned char waves[] = {
    0,0,255,255,255,255,255,255,255,255,255,255,255,255,255,255,
    0,0,0,0,255,255,255,255,255,255,255,255,255,255,255,255,
    0,0,0,0,0,0,0,0,255,255,255,255,255,255,255,255,
    119,255,32,0,69,86,102,119,114,34,34,34,34,42,170,168,
    0,114,16,221,218,206,17,17,27,132,34,238,238,17,17,31,
    254,220,186,152,118,84,50,16,18,52,86,120,154,188,222,255,
    122,205,219,117,33,19,104,189,220,151,65,1,71,156,221,184,
    15,15,15,15,15,15,15,15,15,15,15,15,15,15,15,15,
    254,252,250,248,246,244,242,240,242,244,246,248,250,252,254,255,
    254,221,204,187,170,153,136,119,138,189,241,36,87,138,189,238,
    132,17,97,237,87,71,90,173,206,163,23,121,221,32,3,71,
    172,62,174,26,65,37,150,201,135,144,229,10,190,123,192,1,
    182,163,148,189,77,28,105,53,208,184,66,208,19,157,172,5,
    172,118,74,84,13,186,237,129,158,34,196,170,106,216,196,72,
    68,161,237,2,163,94,55,102,8,76,35,92,235,204,94,28,
    123,148,39,36,194,89,115,232,32,201,204,201,93,110,18,236,
};

const hUGESong_t softworld = {5, &order_cnt, order1, order2, order3,order4, duty_instruments, wave_instruments, noise_instruments, NULL, waves};
