#include "../hUGEDriver.h"
#include <stddef.h>

static const unsigned char order_cnt = 64;

static const unsigned char P0[] = {
    DN(D_3,1,0x8ED),
    DN(___,0,0x000),
    DN(___,0,0x000),
    DN(___,0,0x000),
    DN(___,0,0x000),
    DN(___,0,0x000),
    DN(___,0,0x000),
    DN(___,0,0x000),
    DN(___,0,0x000),
    DN(___,0,0x000),
    DN(___,0,0x000),
    DN(___,0,0x000),
    DN(___,0,0x000),
    DN(___,0,0x000),
    DN(___,0,0x000),
    DN(___,0,0x000),
    DN(___,0,0x000),
    DN(___,0,0x000),
    DN(___,0,0x000),
    DN(___,0,0x000),
    DN(___,0,0x000),
    DN(___,0,0x000),
    DN(___,0,0x000),
    DN(___,0,0x000),
    DN(___,0,0x000),
    DN(___,0,0x000),
    DN(___,0,0x000),
    DN(___,0,0x000),
    DN(___,0,0x000),
    DN(___,0,0x000),
    DN(___,0,0x000),
    DN(___,0,0x000),
    DN(___,0,0x000),
    DN(___,0,0x000),
    DN(___,0,0x000),
    DN(___,0,0x000),
    DN(___,0,0x000),
    DN(___,0,0x000),
    DN(___,0,0x000),
    DN(___,0,0x000),
    DN(___,0,0x000),
    DN(___,0,0x000),
    DN(___,0,0x000),
    DN(___,0,0x000),
    DN(___,0,0x000),
    DN(___,0,0x000),
    DN(___,0,0x000),
    DN(___,0,0x000),
    DN(___,0,0x000),
    DN(___,0,0x000),
    DN(___,0,0x000),
    DN(___,0,0x000),
    DN(___,0,0x000),
    DN(___,0,0x000),
    DN(___,0,0x000),
    DN(___,0,0x000),
    DN(___,0,0x000),
    DN(___,0,0x000),
    DN(___,0,0x000),
    DN(___,0,0x000),
    DN(___,0,0x000),
    DN(___,0,0x000),
    DN(___,0,0x000),
    DN(___,0,0x000),
};
static const unsigned char P1[] = {
    DN(D_3,1,0x102),
    DN(___,0,0x000),
    DN(___,0,0x000),
    DN(___,0,0x000),
    DN(___,0,0x000),
    DN(___,0,0x000),
    DN(___,0,0x000),
    DN(___,0,0x000),
    DN(___,0,0x000),
    DN(___,0,0x000),
    DN(___,0,0x000),
    DN(___,0,0x000),
    DN(___,0,0x000),
    DN(___,0,0x000),
    DN(___,0,0x000),
    DN(___,0,0x000),
    DN(___,0,0x000),
    DN(___,0,0x000),
    DN(___,0,0x000),
    DN(___,0,0x000),
    DN(___,0,0x000),
    DN(___,0,0x000),
    DN(___,0,0x000),
    DN(___,0,0x000),
    DN(___,0,0x000),
    DN(___,0,0x000),
    DN(___,0,0x000),
    DN(___,0,0x000),
    DN(___,0,0x000),
    DN(___,0,0x000),
    DN(___,0,0x000),
    DN(___,0,0x000),
    DN(___,0,0x000),
    DN(___,0,0x000),
    DN(___,0,0x000),
    DN(___,0,0x000),
    DN(___,0,0x000),
    DN(___,0,0x000),
    DN(___,0,0x000),
    DN(___,0,0x000),
    DN(___,0,0x000),
    DN(___,0,0x000),
    DN(___,0,0x000),
    DN(___,0,0x000),
    DN(___,0,0x000),
    DN(___,0,0x000),
    DN(___,0,0x000),
    DN(___,0,0x000),
    DN(___,0,0x000),
    DN(___,0,0x000),
    DN(___,0,0x000),
    DN(___,0,0x000),
    DN(___,0,0x000),
    DN(___,0,0x000),
    DN(___,0,0x000),
    DN(___,0,0x000),
    DN(___,0,0x000),
    DN(___,0,0x000),
    DN(___,0,0x000),
    DN(___,0,0x000),
    DN(___,0,0x000),
    DN(___,0,0x000),
    DN(___,0,0x000),
    DN(___,0,0x000),
};
static const unsigned char P2[] = {
    DN(D_6,7,0x000),
    DN(F_6,4,0xC01),
    DN(F_6,5,0x000),
    DN(D_6,6,0xC01),
    DN(A_6,2,0x000),
    DN(F_6,6,0xC01),
    DN(D_7,4,0x000),
    DN(A_6,5,0xC01),
    DN(F_7,6,0x000),
    DN(D_7,3,0xC01),
    DN(D_7,7,0x000),
    DN(F_7,2,0xC01),
    DN(A_6,5,0x000),
    DN(D_7,4,0xC01),
    DN(F_6,6,0x000),
    DN(A_6,3,0xC01),
    DN(D_6,6,0x000),
    DN(F_6,7,0xC01),
    DN(F_6,2,0x000),
    DN(D_6,5,0xC01),
    DN(A_6,4,0x000),
    DN(F_6,6,0xC01),
    DN(D_7,5,0x000),
    DN(A_6,3,0xC01),
    DN(F_7,6,0x000),
    DN(D_7,7,0xC01),
    DN(D_7,2,0x000),
    DN(F_7,6,0xC01),
    DN(A_6,5,0x000),
    DN(D_7,4,0xC01),
    DN(F_6,6,0x000),
    DN(A_6,7,0xC01),
    DN(C_6,2,0x000),
    DN(F_6,6,0xC01),
    DN(E_6,5,0x000),
    DN(C_6,4,0xC01),
    DN(G_6,6,0x000),
    DN(E_6,7,0xC01),
    DN(C_7,2,0x000),
    DN(G_6,3,0xC01),
    DN(E_7,3,0x000),
    DN(C_7,6,0xC01),
    DN(C_7,2,0x000),
    DN(E_7,5,0xC01),
    DN(G_6,5,0x000),
    DN(C_7,7,0xC01),
    DN(E_6,4,0x000),
    DN(G_6,7,0xC01),
    DN(C_6,4,0x000),
    DN(E_6,7,0xC01),
    DN(E_6,6,0x000),
    DN(C_6,4,0xC01),
    DN(G_6,2,0x000),
    DN(E_6,3,0xC01),
    DN(C_7,6,0x000),
    DN(G_6,5,0xC01),
    DN(E_7,4,0x000),
    DN(C_7,5,0xC01),
    DN(C_7,5,0x000),
    DN(E_7,3,0xC01),
    DN(G_6,5,0x000),
    DN(C_7,3,0xC01),
    DN(E_6,2,0x000),
    DN(G_6,3,0xC01),
};
static const unsigned char P3[] = {
    DN(___,0,0x000),
    DN(___,0,0x000),
    DN(___,0,0x000),
    DN(___,0,0x000),
    DN(___,0,0x000),
    DN(___,0,0x000),
    DN(___,0,0x000),
    DN(___,0,0x000),
    DN(___,0,0x000),
    DN(___,0,0x000),
    DN(___,0,0x000),
    DN(___,0,0x000),
    DN(___,0,0x000),
    DN(___,0,0x000),
    DN(___,0,0x000),
    DN(___,0,0x000),
    DN(___,0,0x000),
    DN(___,0,0x000),
    DN(___,0,0x000),
    DN(___,0,0x000),
    DN(___,0,0x000),
    DN(___,0,0x000),
    DN(___,0,0x000),
    DN(___,0,0x000),
    DN(___,0,0x000),
    DN(___,0,0x000),
    DN(___,0,0x000),
    DN(___,0,0x000),
    DN(___,0,0x000),
    DN(___,0,0x000),
    DN(___,0,0x000),
    DN(___,0,0x000),
    DN(___,0,0x000),
    DN(___,0,0x000),
    DN(___,0,0x000),
    DN(___,0,0x000),
    DN(___,0,0x000),
    DN(___,0,0x000),
    DN(___,0,0x000),
    DN(___,0,0x000),
    DN(___,0,0x000),
    DN(___,0,0x000),
    DN(___,0,0x000),
    DN(___,0,0x000),
    DN(___,0,0x000),
    DN(___,0,0x000),
    DN(___,0,0x000),
    DN(___,0,0x000),
    DN(___,0,0x000),
    DN(___,0,0x000),
    DN(___,0,0x000),
    DN(___,0,0x000),
    DN(___,0,0x000),
    DN(___,0,0x000),
    DN(___,0,0x000),
    DN(___,0,0x000),
    DN(___,0,0x000),
    DN(___,0,0x000),
    DN(___,0,0x000),
    DN(___,0,0x000),
    DN(___,0,0x000),
    DN(___,0,0x000),
    DN(___,0,0x000),
    DN(___,0,0x000),
};
static const unsigned char P4[] = {
    DN(As5,6,0x000),
    DN(E_6,4,0xC01),
    DN(D_6,5,0x000),
    DN(As5,6,0xC01),
    DN(F_6,4,0x000),
    DN(D_6,5,0xC01),
    DN(As6,2,0x000),
    DN(F_6,7,0xC01),
    DN(D_7,3,0x000),
    DN(As6,6,0xC01),
    DN(As6,4,0x000),
    DN(D_7,2,0xC01),
    DN(F_6,6,0x000),
    DN(As6,4,0xC01),
    DN(D_6,5,0x000),
    DN(F_6,3,0xC01),
    DN(As5,7,0x000),
    DN(D_6,4,0xC01),
    DN(D_6,6,0x000),
    DN(As5,3,0xC01),
    DN(F_6,4,0x000),
    DN(D_6,2,0xC01),
    DN(As6,5,0x000),
    DN(F_6,4,0xC01),
    DN(D_7,6,0x000),
    DN(As6,7,0xC01),
    DN(As6,3,0x000),
    DN(D_7,6,0xC01),
    DN(F_6,4,0x000),
    DN(As6,5,0xC01),
    DN(D_6,2,0x000),
    DN(F_6,7,0xC01),
    DN(A_5,3,0x000),
    DN(D_6,6,0xC01),
    DN(Cs6,5,0x000),
    DN(A_5,4,0xC01),
    DN(E_6,6,0x000),
    DN(Cs6,6,0xC01),
    DN(A_6,3,0x000),
    DN(E_6,5,0xC01),
    DN(Cs7,4,0x000),
    DN(A_6,6,0xC01),
    DN(A_6,5,0x000),
    DN(Cs7,5,0xC01),
    DN(E_6,2,0x000),
    DN(A_6,7,0xC01),
    DN(Cs6,5,0x000),
    DN(E_6,5,0xC01),
    DN(A_5,4,0x000),
    DN(Cs6,6,0xC01),
    DN(Cs6,5,0x000),
    DN(A_5,3,0xC01),
    DN(E_6,5,0x000),
    DN(Cs6,4,0xC01),
    DN(A_6,3,0x000),
    DN(E_6,6,0xC01),
    DN(Cs7,5,0x000),
    DN(A_6,2,0xC01),
    DN(A_6,6,0x000),
    DN(Cs7,5,0xC01),
    DN(E_6,4,0x000),
    DN(A_6,5,0xC01),
    DN(Cs6,2,0x000),
    DN(E_6,7,0xC01),
};
static const unsigned char P5[] = {
    DN(___,0,0x000),
    DN(___,0,0x000),
    DN(___,0,0x000),
    DN(___,0,0x000),
    DN(___,0,0x000),
    DN(___,0,0x000),
    DN(___,0,0x000),
    DN(___,0,0x000),
    DN(___,0,0x000),
    DN(___,0,0x000),
    DN(___,0,0x000),
    DN(___,0,0x000),
    DN(___,0,0x000),
    DN(___,0,0x000),
    DN(___,0,0x000),
    DN(___,0,0x000),
    DN(___,0,0x000),
    DN(___,0,0x000),
    DN(___,0,0x000),
    DN(___,0,0x000),
    DN(___,0,0x000),
    DN(___,0,0x000),
    DN(___,0,0x000),
    DN(___,0,0x000),
    DN(___,0,0x000),
    DN(___,0,0x000),
    DN(___,0,0x000),
    DN(___,0,0x000),
    DN(___,0,0x000),
    DN(___,0,0x000),
    DN(___,0,0x000),
    DN(___,0,0x000),
    DN(___,0,0x000),
    DN(___,0,0x000),
    DN(___,0,0x000),
    DN(___,0,0x000),
    DN(___,0,0x000),
    DN(___,0,0x000),
    DN(___,0,0x000),
    DN(___,0,0x000),
    DN(___,0,0x000),
    DN(___,0,0x000),
    DN(___,0,0x000),
    DN(___,0,0x000),
    DN(___,0,0x000),
    DN(___,0,0x000),
    DN(___,0,0x000),
    DN(___,0,0x000),
    DN(___,0,0x000),
    DN(___,0,0x000),
    DN(___,0,0x000),
    DN(___,0,0x000),
    DN(___,0,0x000),
    DN(___,0,0x000),
    DN(___,0,0x000),
    DN(___,0,0x000),
    DN(___,0,0x000),
    DN(___,0,0x000),
    DN(___,0,0x000),
    DN(___,0,0x000),
    DN(D_5,1,0x000),
    DN(___,0,0x20F),
    DN(___,0,0x20F),
    DN(___,0,0x20F),
};
static const unsigned char P6[] = {
    DN(___,0,0x000),
    DN(___,0,0x000),
    DN(___,0,0x000),
    DN(___,0,0x000),
    DN(___,0,0x000),
    DN(___,0,0x000),
    DN(___,0,0x000),
    DN(___,0,0x000),
    DN(___,0,0x000),
    DN(___,0,0x000),
    DN(___,0,0x000),
    DN(___,0,0x000),
    DN(___,0,0x000),
    DN(___,0,0x000),
    DN(___,0,0x000),
    DN(___,0,0x000),
    DN(___,0,0x000),
    DN(___,0,0x000),
    DN(___,0,0x000),
    DN(___,0,0x000),
    DN(___,0,0x000),
    DN(___,0,0x000),
    DN(___,0,0x000),
    DN(___,0,0x000),
    DN(___,0,0x000),
    DN(___,0,0x000),
    DN(___,0,0x000),
    DN(___,0,0x000),
    DN(___,0,0x000),
    DN(___,0,0x000),
    DN(___,0,0x000),
    DN(___,0,0x000),
    DN(___,0,0x000),
    DN(___,0,0x000),
    DN(___,0,0x000),
    DN(___,0,0x000),
    DN(___,0,0x000),
    DN(___,0,0x000),
    DN(___,0,0x000),
    DN(___,0,0x000),
    DN(___,0,0x000),
    DN(___,0,0x000),
    DN(___,0,0x000),
    DN(___,0,0x000),
    DN(___,0,0x000),
    DN(___,0,0x000),
    DN(___,0,0x000),
    DN(___,0,0x000),
    DN(___,0,0x000),
    DN(___,0,0x000),
    DN(___,0,0x000),
    DN(___,0,0x000),
    DN(___,0,0x000),
    DN(___,0,0x000),
    DN(___,0,0x000),
    DN(___,0,0x000),
    DN(___,0,0x000),
    DN(___,0,0x000),
    DN(___,0,0x000),
    DN(___,0,0x000),
    DN(B_7,9,0x000),
    DN(___,0,0x000),
    DN(___,0,0x000),
    DN(___,0,0x000),
};
static const unsigned char P7[] = {
    DN(D_6,1,0x027),
    DN(D_6,10,0x027),
    DN(D_6,1,0x037),
    DN(D_6,10,0x037),
    DN(___,0,0x037),
    DN(D_6,11,0x037),
    DN(D_6,1,0x037),
    DN(D_6,10,0x037),
    DN(___,0,0x037),
    DN(D_6,11,0x037),
    DN(D_6,1,0x037),
    DN(D_6,10,0x037),
    DN(D_6,1,0x057),
    DN(D_6,10,0x057),
    DN(D_6,1,0x037),
    DN(D_6,10,0x037),
    DN(D_6,1,0x027),
    DN(D_6,10,0x027),
    DN(D_6,1,0x037),
    DN(D_6,10,0x037),
    DN(___,0,0x037),
    DN(D_6,11,0x037),
    DN(D_6,1,0x037),
    DN(D_6,10,0x037),
    DN(___,0,0x037),
    DN(D_6,11,0x037),
    DN(D_6,1,0x037),
    DN(D_6,10,0x037),
    DN(D_6,1,0x037),
    DN(D_6,10,0x037),
    DN(D_6,1,0x037),
    DN(D_6,10,0x037),
    DN(C_6,1,0x027),
    DN(C_6,10,0x027),
    DN(C_6,1,0x047),
    DN(C_6,10,0x047),
    DN(___,0,0x047),
    DN(C_6,11,0x047),
    DN(C_6,1,0x047),
    DN(C_6,10,0x047),
    DN(___,0,0x047),
    DN(C_6,11,0x047),
    DN(C_6,1,0x047),
    DN(C_6,10,0x047),
    DN(C_6,1,0x057),
    DN(C_6,10,0x057),
    DN(C_6,1,0x047),
    DN(C_6,10,0x047),
    DN(C_6,1,0x027),
    DN(C_6,10,0x027),
    DN(C_6,1,0x047),
    DN(C_6,10,0x047),
    DN(___,0,0x047),
    DN(C_6,11,0x047),
    DN(C_6,1,0x047),
    DN(C_6,10,0x047),
    DN(___,0,0x047),
    DN(C_6,11,0x047),
    DN(C_6,1,0x047),
    DN(C_6,10,0x047),
    DN(C_6,1,0x047),
    DN(C_6,10,0x047),
    DN(C_6,1,0x047),
    DN(C_6,10,0x047),
};
static const unsigned char P8[] = {
    DN(D_3,8,0x8FF),
    DN(___,0,0x000),
    DN(D_3,8,0x000),
    DN(___,0,0x000),
    DN(D_4,8,0x000),
    DN(___,0,0x000),
    DN(D_3,8,0x000),
    DN(___,0,0x000),
    DN(D_3,8,0x000),
    DN(___,0,0x000),
    DN(D_4,8,0x000),
    DN(___,0,0x000),
    DN(D_3,8,0x000),
    DN(___,0,0x000),
    DN(D_3,8,0x000),
    DN(___,0,0x000),
    DN(D_4,8,0x000),
    DN(___,0,0x000),
    DN(D_3,8,0x000),
    DN(___,0,0x000),
    DN(D_3,8,0x000),
    DN(___,0,0x000),
    DN(D_4,8,0x000),
    DN(___,0,0x000),
    DN(D_3,8,0x000),
    DN(___,0,0x000),
    DN(D_3,8,0x000),
    DN(___,0,0x000),
    DN(D_4,8,0x000),
    DN(___,0,0x000),
    DN(___,0,0x4A2),
    DN(___,0,0x4A2),
    DN(C_3,8,0x000),
    DN(___,0,0x000),
    DN(C_3,8,0x000),
    DN(___,0,0x000),
    DN(C_4,8,0x000),
    DN(___,0,0x000),
    DN(C_3,8,0x000),
    DN(___,0,0x000),
    DN(C_3,8,0x000),
    DN(___,0,0x000),
    DN(C_4,8,0x000),
    DN(___,0,0x000),
    DN(C_3,8,0x000),
    DN(___,0,0x000),
    DN(C_4,8,0x000),
    DN(___,0,0x000),
    DN(C_3,8,0x000),
    DN(___,0,0x000),
    DN(C_3,8,0x000),
    DN(___,0,0x000),
    DN(C_4,8,0x000),
    DN(___,0,0x000),
    DN(C_3,8,0x000),
    DN(___,0,0x000),
    DN(C_3,8,0x000),
    DN(___,0,0x000),
    DN(C_3,8,0x000),
    DN(___,0,0x000),
    DN(C_3,8,0x000),
    DN(___,0,0x000),
    DN(C_4,8,0x000),
    DN(___,0,0x000),
};
static const unsigned char P10[] = {
    DN(Ds7,12,0x000),
    DN(___,0,0x000),
    DN(___,0,0x000),
    DN(___,0,0x000),
    DN(___,0,0x000),
    DN(___,0,0x000),
    DN(Ds7,12,0x000),
    DN(___,0,0x000),
    DN(D_8,12,0x000),
    DN(___,0,0x000),
    DN(___,0,0x000),
    DN(___,0,0x000),
    DN(___,0,0x000),
    DN(___,0,0x000),
    DN(___,0,0x000),
    DN(___,0,0x000),
    DN(Ds7,12,0x000),
    DN(___,0,0x000),
    DN(___,0,0x000),
    DN(___,0,0x000),
    DN(___,0,0x000),
    DN(___,0,0x000),
    DN(Ds7,12,0x000),
    DN(___,0,0x000),
    DN(D_8,12,0x000),
    DN(___,0,0x000),
    DN(___,0,0x000),
    DN(___,0,0x000),
    DN(Ds7,12,0x000),
    DN(___,0,0x000),
    DN(___,0,0x000),
    DN(___,0,0x000),
    DN(Ds7,12,0x000),
    DN(___,0,0x000),
    DN(___,0,0x000),
    DN(___,0,0x000),
    DN(___,0,0x000),
    DN(___,0,0x000),
    DN(Ds7,12,0x000),
    DN(___,0,0x000),
    DN(D_8,12,0x000),
    DN(___,0,0x000),
    DN(___,0,0x000),
    DN(___,0,0x000),
    DN(___,0,0x000),
    DN(___,0,0x000),
    DN(___,0,0x000),
    DN(___,0,0x000),
    DN(Ds7,12,0x000),
    DN(___,0,0x000),
    DN(___,0,0x000),
    DN(___,0,0x000),
    DN(___,0,0x000),
    DN(___,0,0x000),
    DN(Ds7,12,0x000),
    DN(___,0,0x000),
    DN(D_8,12,0x000),
    DN(___,0,0x000),
    DN(___,0,0x000),
    DN(___,0,0x000),
    DN(Ds7,12,0x000),
    DN(___,0,0x000),
    DN(___,0,0x000),
    DN(___,0,0x000),
};
static const unsigned char P11[] = {
    DN(As5,1,0x027),
    DN(As5,10,0x027),
    DN(As5,1,0x047),
    DN(As5,10,0x047),
    DN(___,0,0x047),
    DN(As5,11,0x047),
    DN(As5,1,0x047),
    DN(As5,10,0x047),
    DN(___,0,0x047),
    DN(As5,11,0x047),
    DN(As5,1,0x047),
    DN(As5,10,0x047),
    DN(As5,1,0x047),
    DN(As5,10,0x047),
    DN(As5,1,0x047),
    DN(As5,10,0x047),
    DN(As5,1,0x027),
    DN(As5,10,0x027),
    DN(As5,1,0x047),
    DN(As5,10,0x047),
    DN(___,0,0x047),
    DN(As5,11,0x047),
    DN(As5,1,0x047),
    DN(As5,10,0x047),
    DN(___,0,0x047),
    DN(As5,11,0x047),
    DN(As5,1,0x047),
    DN(As5,10,0x047),
    DN(As5,1,0x047),
    DN(As5,10,0x047),
    DN(As5,1,0x047),
    DN(As5,10,0x047),
    DN(A_5,1,0x027),
    DN(A_5,10,0x027),
    DN(A_5,1,0x047),
    DN(A_5,10,0x047),
    DN(___,0,0x047),
    DN(A_5,11,0x047),
    DN(A_5,1,0x047),
    DN(A_5,10,0x047),
    DN(___,0,0x047),
    DN(A_5,11,0x047),
    DN(A_5,1,0x047),
    DN(A_5,10,0x047),
    DN(A_5,1,0x057),
    DN(A_5,10,0x057),
    DN(A_5,1,0x047),
    DN(A_5,10,0x047),
    DN(A_5,1,0x027),
    DN(A_5,10,0x027),
    DN(A_5,1,0x047),
    DN(A_5,10,0x047),
    DN(___,0,0x047),
    DN(A_5,11,0x047),
    DN(A_5,1,0x047),
    DN(A_5,10,0x047),
    DN(___,0,0x047),
    DN(A_5,11,0x047),
    DN(A_5,1,0x047),
    DN(A_5,10,0x047),
    DN(A_5,1,0x047),
    DN(A_5,10,0x047),
    DN(A_5,1,0x047),
    DN(A_5,10,0x047),
};
static const unsigned char P12[] = {
    DN(As3,8,0x000),
    DN(___,0,0x000),
    DN(As3,8,0x000),
    DN(___,0,0x000),
    DN(As4,8,0x000),
    DN(___,0,0x000),
    DN(As3,8,0x000),
    DN(___,0,0x000),
    DN(As3,8,0x000),
    DN(___,0,0x000),
    DN(As4,8,0x000),
    DN(___,0,0x000),
    DN(As3,8,0x000),
    DN(___,0,0x000),
    DN(As4,8,0x000),
    DN(___,0,0x000),
    DN(As3,8,0x000),
    DN(___,0,0x000),
    DN(As3,8,0x000),
    DN(___,0,0x000),
    DN(As4,8,0x000),
    DN(___,0,0x000),
    DN(As3,8,0x000),
    DN(___,0,0x000),
    DN(As3,8,0x000),
    DN(___,0,0x000),
    DN(As3,8,0x000),
    DN(___,0,0x000),
    DN(As4,8,0x000),
    DN(___,0,0x000),
    DN(___,0,0x4A2),
    DN(___,0,0x4A2),
    DN(A_3,8,0x000),
    DN(___,0,0x000),
    DN(A_3,8,0x000),
    DN(___,0,0x000),
    DN(A_4,8,0x000),
    DN(___,0,0x000),
    DN(A_3,8,0x000),
    DN(___,0,0x000),
    DN(A_3,8,0x000),
    DN(___,0,0x000),
    DN(A_4,8,0x000),
    DN(___,0,0x000),
    DN(A_3,8,0x000),
    DN(___,0,0x000),
    DN(A_4,8,0x000),
    DN(___,0,0x000),
    DN(A_3,8,0x000),
    DN(___,0,0x000),
    DN(A_3,8,0x000),
    DN(___,0,0x000),
    DN(A_4,8,0x000),
    DN(___,0,0x000),
    DN(A_3,8,0x000),
    DN(___,0,0x000),
    DN(A_3,8,0x000),
    DN(___,0,0x000),
    DN(A_3,8,0x000),
    DN(___,0,0x000),
    DN(A_4,8,0x000),
    DN(___,0,0x000),
    DN(___,8,0x000),
    DN(___,0,0x000),
};
static const unsigned char P17[] = {
    DN(D_6,14,0x900),
    DN(___,0,0x000),
    DN(D_6,14,0x940),
    DN(___,0,0x000),
    DN(D_6,14,0x980),
    DN(___,0,0x000),
    DN(D_6,14,0x9C0),
    DN(___,0,0x000),
    DN(D_6,14,0x472),
    DN(___,0,0x472),
    DN(D_6,14,0x472),
    DN(___,0,0x472),
    DN(D_6,14,0x472),
    DN(___,0,0x472),
    DN(D_6,14,0x472),
    DN(___,0,0x472),
    DN(D_6,14,0x472),
    DN(___,0,0x472),
    DN(D_6,0,0x472),
    DN(___,0,0x472),
    DN(D_6,0,0x472),
    DN(___,0,0x472),
    DN(D_6,0,0x472),
    DN(___,0,0x472),
    DN(D_6,0,0x472),
    DN(___,0,0x472),
    DN(D_6,0,0x472),
    DN(___,0,0x472),
    DN(D_6,0,0x472),
    DN(___,0,0x472),
    DN(D_6,0,0x472),
    DN(___,0,0x472),
    DN(A_5,14,0x900),
    DN(___,0,0x000),
    DN(A_5,14,0x940),
    DN(___,0,0x000),
    DN(A_5,14,0x980),
    DN(___,0,0x000),
    DN(A_5,14,0x9C0),
    DN(___,0,0x000),
    DN(A_5,14,0x472),
    DN(___,0,0x472),
    DN(A_5,14,0x472),
    DN(___,0,0x472),
    DN(A_5,14,0x472),
    DN(___,0,0x472),
    DN(A_5,14,0x472),
    DN(___,0,0x472),
    DN(A_5,14,0x472),
    DN(___,0,0x472),
    DN(A_5,0,0x472),
    DN(___,0,0x472),
    DN(A_5,0,0x472),
    DN(___,0,0x472),
    DN(A_5,0,0x472),
    DN(___,0,0x472),
    DN(A_5,0,0x472),
    DN(___,0,0x472),
    DN(A_5,0,0x472),
    DN(___,0,0x472),
    DN(A_5,0,0x472),
    DN(___,0,0x472),
    DN(A_5,0,0x472),
    DN(___,0,0x472),
};
static const unsigned char P19[] = {
    DN(D_6,13,0x900),
    DN(A_5,13,0xC09),
    DN(A_5,13,0x940),
    DN(D_6,13,0xC09),
    DN(D_5,13,0x980),
    DN(A_5,13,0xC09),
    DN(A_4,13,0x9C0),
    DN(D_5,13,0xC09),
    DN(D_4,13,0x980),
    DN(A_4,13,0xC09),
    DN(A_4,13,0x940),
    DN(D_4,13,0xC09),
    DN(D_5,13,0x900),
    DN(A_4,13,0xC09),
    DN(A_5,13,0x940),
    DN(D_5,13,0xC09),
    DN(D_6,13,0x980),
    DN(A_5,13,0xC09),
    DN(A_5,13,0x9C0),
    DN(D_6,13,0xC09),
    DN(D_5,13,0x980),
    DN(A_5,13,0xC09),
    DN(A_4,13,0x940),
    DN(D_5,13,0xC09),
    DN(D_4,13,0x900),
    DN(A_4,13,0xC09),
    DN(A_4,13,0x940),
    DN(D_4,13,0xC09),
    DN(D_5,13,0x980),
    DN(A_4,13,0xC09),
    DN(A_5,13,0x9C0),
    DN(D_5,13,0xC09),
    DN(A_4,13,0x980),
    DN(A_5,13,0xC09),
    DN(Cs5,13,0x940),
    DN(A_4,13,0xC09),
    DN(E_5,13,0x900),
    DN(Cs5,13,0xC09),
    DN(A_5,13,0x940),
    DN(E_5,13,0xC09),
    DN(Cs6,13,0x980),
    DN(A_5,13,0xC09),
    DN(A_5,13,0x9C0),
    DN(Cs6,13,0xC09),
    DN(E_5,13,0x980),
    DN(A_5,13,0xC09),
    DN(Cs5,13,0x940),
    DN(E_5,13,0xC09),
    DN(A_6,13,0x900),
    DN(Cs5,13,0xC09),
    DN(E_6,13,0x940),
    DN(A_6,13,0xC09),
    DN(Cs6,13,0x980),
    DN(E_6,13,0xC09),
    DN(A_5,13,0x9C0),
    DN(Cs6,13,0xC09),
    DN(E_5,13,0x980),
    DN(A_5,13,0xC09),
    DN(Cs5,13,0x940),
    DN(E_5,13,0xC09),
    DN(A_4,13,0x900),
    DN(Cs5,13,0xC09),
    DN(E_4,13,0x940),
    DN(A_4,13,0xC09),
};
static const unsigned char P24[] = {
    DN(D_6,13,0x900),
    DN(A_5,13,0xC09),
    DN(A_5,13,0x940),
    DN(D_6,13,0xC09),
    DN(D_5,13,0x980),
    DN(A_5,13,0xC09),
    DN(A_4,13,0x9C0),
    DN(D_5,13,0xC09),
    DN(D_4,13,0x980),
    DN(A_4,13,0xC09),
    DN(A_4,13,0x940),
    DN(D_4,13,0xC09),
    DN(D_5,13,0x900),
    DN(A_4,13,0xC09),
    DN(A_5,13,0x940),
    DN(D_5,13,0xC09),
    DN(D_6,13,0x980),
    DN(A_5,13,0xC09),
    DN(A_5,13,0x9C0),
    DN(D_6,13,0xC09),
    DN(D_5,13,0x980),
    DN(A_5,13,0xC09),
    DN(A_4,13,0x940),
    DN(D_5,13,0xC09),
    DN(D_4,13,0x900),
    DN(A_4,13,0xC09),
    DN(A_4,13,0x940),
    DN(D_4,13,0xC09),
    DN(D_5,13,0x980),
    DN(A_4,13,0xC09),
    DN(A_5,13,0x9C0),
    DN(D_5,13,0xC09),
    DN(D_6,13,0x980),
    DN(A_5,13,0xC09),
    DN(A_5,13,0x940),
    DN(D_6,13,0xC09),
    DN(D_5,13,0x900),
    DN(A_5,13,0xC09),
    DN(A_4,13,0x940),
    DN(D_5,13,0xC09),
    DN(D_4,13,0x980),
    DN(A_4,13,0xC09),
    DN(A_4,13,0x9C0),
    DN(D_4,13,0xC09),
    DN(D_5,13,0x980),
    DN(A_4,13,0xC09),
    DN(A_5,13,0x940),
    DN(D_5,13,0xC09),
    DN(D_6,13,0x900),
    DN(A_5,13,0xC09),
    DN(A_5,13,0x940),
    DN(D_6,13,0xC09),
    DN(D_5,13,0x980),
    DN(A_5,13,0xC09),
    DN(A_4,13,0x9C0),
    DN(D_5,13,0xC09),
    DN(D_4,13,0x980),
    DN(A_4,13,0xC09),
    DN(A_4,13,0x940),
    DN(D_4,13,0xC09),
    DN(D_5,13,0x900),
    DN(A_4,13,0xC09),
    DN(A_5,13,0x940),
    DN(D_5,13,0xC09),
};
static const unsigned char P25[] = {
    DN(G_5,14,0x104),
    DN(A_5,0,0x330),
    DN(___,14,0x472),
    DN(___,0,0x472),
    DN(___,14,0x472),
    DN(___,0,0x472),
    DN(___,14,0x472),
    DN(___,0,0x472),
    DN(___,14,0x472),
    DN(___,0,0x472),
    DN(___,14,0x472),
    DN(___,0,0x472),
    DN(G_5,14,0x000),
    DN(A_5,14,0xC04),
    DN(F_5,14,0x000),
    DN(G_5,14,0xC04),
    DN(F_5,14,0x204),
    DN(E_5,0,0x360),
    DN(___,14,0x472),
    DN(___,0,0x472),
    DN(D_5,14,0x000),
    DN(E_5,14,0xC04),
    DN(D_5,14,0x000),
    DN(___,0,0x000),
    DN(___,14,0x472),
    DN(___,0,0x472),
    DN(___,14,0x472),
    DN(___,0,0x472),
    DN(C_5,14,0x000),
    DN(___,0,0x000),
    DN(___,14,0x472),
    DN(___,0,0x472),
    DN(A_5,14,0x000),
    DN(___,0,0x000),
    DN(___,14,0x472),
    DN(___,0,0x472),
    DN(___,14,0x472),
    DN(___,0,0x472),
    DN(G_5,14,0x000),
    DN(___,0,0x000),
    DN(___,14,0x472),
    DN(___,0,0x472),
    DN(___,14,0x472),
    DN(___,0,0x472),
    DN(F_5,14,0x000),
    DN(___,0,0x000),
    DN(___,14,0x472),
    DN(___,0,0x472),
    DN(E_5,14,0x000),
    DN(___,0,0x000),
    DN(___,14,0x472),
    DN(___,0,0x472),
    DN(___,14,0x472),
    DN(___,0,0x472),
    DN(___,14,0x472),
    DN(___,0,0x472),
    DN(___,14,0x472),
    DN(___,0,0x472),
    DN(___,14,0x472),
    DN(___,0,0x472),
    DN(___,14,0x472),
    DN(___,0,0x472),
    DN(___,14,0x472),
    DN(___,0,0x472),
};
static const unsigned char P26[] = {
    DN(E_5,14,0x000),
    DN(___,0,0x000),
    DN(___,14,0x472),
    DN(___,0,0x472),
    DN(___,14,0x472),
    DN(___,0,0x472),
    DN(___,14,0x472),
    DN(___,0,0x472),
    DN(___,14,0x472),
    DN(___,0,0x472),
    DN(___,14,0x472),
    DN(___,0,0x472),
    DN(D_5,14,0x000),
    DN(E_5,14,0xC18),
    DN(A_4,14,0x000),
    DN(D_5,14,0xC18),
    DN(D_5,14,0x106),
    DN(E_5,0,0x340),
    DN(___,14,0x472),
    DN(___,0,0x472),
    DN(F_5,14,0x000),
    DN(___,0,0x000),
    DN(D_5,0,0x333),
    DN(___,0,0x333),
    DN(___,14,0x472),
    DN(___,0,0x472),
    DN(___,14,0x472),
    DN(___,0,0x472),
    DN(A_4,14,0x000),
    DN(___,0,0x000),
    DN(___,14,0x472),
    DN(___,0,0x472),
    DN(D_5,14,0x000),
    DN(___,0,0x000),
    DN(___,14,0x472),
    DN(___,0,0x472),
    DN(___,14,0x472),
    DN(___,0,0x472),
    DN(E_5,14,0x000),
    DN(___,0,0x000),
    DN(___,14,0x472),
    DN(___,0,0x472),
    DN(___,14,0x472),
    DN(___,0,0x472),
    DN(F_5,14,0x000),
    DN(___,0,0x000),
    DN(___,14,0x472),
    DN(___,0,0x472),
    DN(D_5,14,0x104),
    DN(E_5,0,0x360),
    DN(___,14,0x472),
    DN(___,0,0x472),
    DN(F_5,14,0x000),
    DN(___,0,0x000),
    DN(D_5,14,0x000),
    DN(___,0,0x000),
    DN(___,14,0x472),
    DN(___,0,0x472),
    DN(___,14,0x472),
    DN(___,0,0x472),
    DN(___,14,0x4F2),
    DN(___,0,0x472),
    DN(___,14,0x472),
    DN(___,0,0x472),
};
static const unsigned char P27[] = {
    DN(G_5,14,0x104),
    DN(A_5,0,0x330),
    DN(___,14,0x472),
    DN(___,0,0x472),
    DN(___,14,0x472),
    DN(___,0,0x472),
    DN(___,14,0x472),
    DN(___,0,0x472),
    DN(___,14,0x472),
    DN(___,0,0x472),
    DN(___,14,0x472),
    DN(___,0,0x472),
    DN(G_5,14,0x000),
    DN(A_5,14,0xC05),
    DN(F_5,14,0x000),
    DN(G_5,14,0xC05),
    DN(C_6,14,0x104),
    DN(D_6,0,0x360),
    DN(___,14,0x472),
    DN(___,0,0x472),
    DN(D_5,14,0x000),
    DN(D_6,14,0xC05),
    DN(D_5,14,0x000),
    DN(___,0,0x000),
    DN(___,14,0x472),
    DN(___,0,0x472),
    DN(___,14,0x472),
    DN(___,0,0x472),
    DN(C_5,14,0x000),
    DN(___,0,0x000),
    DN(___,14,0x472),
    DN(___,0,0x472),
    DN(A_5,14,0x000),
    DN(___,0,0x000),
    DN(___,14,0x472),
    DN(___,0,0x472),
    DN(___,14,0x472),
    DN(___,0,0x472),
    DN(G_5,14,0x000),
    DN(___,0,0x000),
    DN(___,14,0x472),
    DN(___,0,0x472),
    DN(___,14,0x472),
    DN(___,0,0x472),
    DN(F_5,14,0x000),
    DN(___,0,0x000),
    DN(___,14,0x472),
    DN(___,0,0x472),
    DN(E_5,14,0x000),
    DN(___,0,0x000),
    DN(___,14,0x472),
    DN(___,0,0x472),
    DN(___,14,0x472),
    DN(___,0,0x472),
    DN(___,14,0x472),
    DN(___,0,0x472),
    DN(___,14,0x472),
    DN(___,0,0x472),
    DN(___,14,0x472),
    DN(___,0,0x472),
    DN(___,14,0x472),
    DN(___,0,0x472),
    DN(___,14,0x472),
    DN(___,0,0x472),
};
static const unsigned char P28[] = {
    DN(E_5,14,0x000),
    DN(___,0,0x000),
    DN(___,14,0x4A2),
    DN(___,0,0x472),
    DN(___,14,0x472),
    DN(___,0,0x472),
    DN(___,14,0x472),
    DN(___,0,0x472),
    DN(___,14,0x472),
    DN(___,0,0x472),
    DN(___,14,0x472),
    DN(___,0,0x472),
    DN(D_5,14,0x000),
    DN(E_5,14,0xC08),
    DN(A_4,14,0x000),
    DN(D_5,14,0xC08),
    DN(D_5,14,0x106),
    DN(E_5,0,0x340),
    DN(___,14,0x472),
    DN(___,0,0x472),
    DN(F_5,14,0x000),
    DN(___,0,0x000),
    DN(D_5,0,0x340),
    DN(___,0,0x340),
    DN(___,14,0x472),
    DN(___,0,0x472),
    DN(___,14,0x472),
    DN(___,0,0x472),
    DN(A_4,14,0x000),
    DN(___,0,0x000),
    DN(___,14,0x472),
    DN(___,0,0x472),
    DN(G_5,14,0x000),
    DN(___,0,0x000),
    DN(___,14,0x472),
    DN(___,0,0x472),
    DN(___,14,0x472),
    DN(___,0,0x472),
    DN(___,14,0x472),
    DN(___,0,0x472),
    DN(___,14,0x472),
    DN(___,0,0x472),
    DN(___,14,0x472),
    DN(___,0,0x472),
    DN(___,14,0x472),
    DN(___,0,0x472),
    DN(___,14,0x472),
    DN(___,0,0x472),
    DN(___,14,0x472),
    DN(___,0,0x472),
    DN(___,14,0x472),
    DN(___,0,0x472),
    DN(___,14,0x472),
    DN(___,0,0x472),
    DN(___,14,0x472),
    DN(___,0,0x472),
    DN(___,14,0x472),
    DN(___,0,0x472),
    DN(___,14,0x472),
    DN(___,0,0x472),
    DN(___,14,0x472),
    DN(___,0,0x472),
    DN(___,14,0x472),
    DN(___,0,0x472),
};
static const unsigned char P29[] = {
    DN(F_5,14,0x000),
    DN(___,0,0x000),
    DN(___,14,0x000),
    DN(___,0,0x000),
    DN(___,14,0x000),
    DN(___,0,0x000),
    DN(___,14,0x000),
    DN(___,0,0x000),
    DN(___,14,0x472),
    DN(___,0,0x472),
    DN(___,14,0x472),
    DN(___,0,0x472),
    DN(___,14,0x472),
    DN(___,0,0x472),
    DN(___,14,0x472),
    DN(___,0,0x472),
    DN(___,14,0x472),
    DN(___,0,0x472),
    DN(___,14,0x472),
    DN(___,0,0x472),
    DN(___,14,0x472),
    DN(___,0,0x472),
    DN(___,14,0x472),
    DN(___,0,0x472),
    DN(___,14,0x472),
    DN(___,0,0x472),
    DN(___,14,0x472),
    DN(___,0,0x472),
    DN(E_5,14,0x000),
    DN(___,0,0xA04),
    DN(F_5,14,0x000),
    DN(___,0,0xA04),
    DN(E_5,14,0x000),
    DN(___,0,0xA04),
    DN(___,14,0x000),
    DN(___,0,0x000),
    DN(___,14,0x000),
    DN(___,0,0x000),
    DN(___,14,0x000),
    DN(___,0,0x000),
    DN(___,14,0x472),
    DN(___,0,0x472),
    DN(___,14,0x472),
    DN(___,0,0x472),
    DN(___,14,0x472),
    DN(___,0,0x472),
    DN(___,14,0x472),
    DN(___,0,0x472),
    DN(___,14,0x472),
    DN(___,0,0x472),
    DN(___,14,0x472),
    DN(___,0,0x472),
    DN(___,14,0x472),
    DN(___,0,0x472),
    DN(___,14,0x472),
    DN(___,0,0x472),
    DN(___,14,0x472),
    DN(___,0,0x472),
    DN(___,14,0x472),
    DN(___,0,0x472),
    DN(___,14,0x472),
    DN(___,0,0x472),
    DN(___,14,0x472),
    DN(___,0,0x472),
};
static const unsigned char P30[] = {
    DN(F_5,14,0x000),
    DN(___,0,0x000),
    DN(___,14,0x000),
    DN(___,0,0x000),
    DN(___,14,0x000),
    DN(___,0,0x000),
    DN(___,14,0x000),
    DN(___,0,0x000),
    DN(___,14,0x472),
    DN(___,0,0x472),
    DN(___,14,0x472),
    DN(___,0,0x472),
    DN(___,14,0x472),
    DN(___,0,0x472),
    DN(___,14,0x472),
    DN(___,0,0x472),
    DN(___,14,0x472),
    DN(___,0,0x472),
    DN(___,14,0x472),
    DN(___,0,0x472),
    DN(___,14,0x472),
    DN(___,0,0x472),
    DN(___,14,0x472),
    DN(___,0,0x472),
    DN(___,14,0x472),
    DN(___,0,0x472),
    DN(___,14,0x472),
    DN(___,0,0x472),
    DN(E_5,14,0x000),
    DN(___,0,0xA04),
    DN(F_5,14,0x000),
    DN(___,0,0xA04),
    DN(E_5,14,0x000),
    DN(___,0,0xA03),
    DN(F_5,14,0x000),
    DN(___,0,0xA02),
    DN(E_5,14,0x000),
    DN(___,0,0xA01),
    DN(F_5,14,0x000),
    DN(___,0,0x000),
    DN(E_5,14,0x472),
    DN(___,0,0x472),
    DN(F_5,14,0x472),
    DN(___,0,0x472),
    DN(E_5,14,0x472),
    DN(___,0,0x472),
    DN(F_5,14,0x472),
    DN(___,0,0x472),
    DN(E_5,14,0x472),
    DN(___,0,0x472),
    DN(___,14,0x472),
    DN(___,0,0x472),
    DN(___,14,0x472),
    DN(___,0,0x472),
    DN(___,14,0x472),
    DN(___,0,0x472),
    DN(___,14,0x472),
    DN(___,0,0x472),
    DN(___,14,0x472),
    DN(___,0,0xA06),
    DN(___,0,0x472),
    DN(___,0,0x472),
    DN(E_5,14,0xC08),
    DN(___,0,0x472),
};
static const unsigned char P31[] = {
    DN(D_5,14,0x900),
    DN(___,0,0x000),
    DN(D_5,14,0x940),
    DN(___,0,0x000),
    DN(D_5,14,0x980),
    DN(___,0,0x000),
    DN(D_5,14,0x9C0),
    DN(___,0,0x000),
    DN(D_5,14,0x980),
    DN(___,0,0x000),
    DN(D_5,14,0x940),
    DN(___,0,0x000),
    DN(D_5,14,0x900),
    DN(___,0,0x000),
    DN(D_5,14,0x940),
    DN(___,0,0x000),
    DN(D_5,14,0x980),
    DN(___,0,0x000),
    DN(D_5,14,0x9C0),
    DN(___,0,0x000),
    DN(D_5,14,0x980),
    DN(___,0,0x000),
    DN(D_5,14,0x940),
    DN(___,0,0x000),
    DN(D_5,14,0x900),
    DN(___,0,0x000),
    DN(D_5,14,0x940),
    DN(___,0,0x000),
    DN(D_5,14,0x980),
    DN(___,0,0x000),
    DN(D_5,14,0x9C0),
    DN(___,0,0x000),
    DN(D_5,14,0x980),
    DN(___,0,0x000),
    DN(D_5,14,0x940),
    DN(___,0,0x000),
    DN(D_5,14,0x900),
    DN(___,0,0x000),
    DN(D_5,14,0x940),
    DN(___,0,0x000),
    DN(D_5,14,0x980),
    DN(___,0,0x000),
    DN(D_5,14,0x9C0),
    DN(___,0,0x000),
    DN(D_5,14,0x980),
    DN(___,0,0x000),
    DN(D_5,14,0x940),
    DN(___,0,0x000),
    DN(D_5,14,0x900),
    DN(___,0,0x000),
    DN(D_5,14,0x940),
    DN(___,0,0x000),
    DN(D_5,14,0x980),
    DN(___,0,0x000),
    DN(D_5,14,0x9C0),
    DN(___,0,0x000),
    DN(D_5,14,0x980),
    DN(___,0,0x000),
    DN(D_5,14,0x940),
    DN(___,0,0x000),
    DN(D_5,14,0x900),
    DN(___,0,0x000),
    DN(D_5,14,0x940),
    DN(___,0,0x000),
};
static const unsigned char P32[] = {
    DN(D_6,2,0x0C0),
    DN(D_6,2,0xC01),
    DN(G_6,2,0x0C0),
    DN(D_6,2,0xC01),
    DN(A_6,2,0x0C0),
    DN(G_6,2,0xC01),
    DN(C_7,2,0x0C0),
    DN(A_6,2,0xC01),
    DN(D_7,2,0x0C0),
    DN(C_7,2,0xC01),
    DN(C_7,2,0x0C0),
    DN(D_7,2,0xC01),
    DN(A_6,2,0x0C0),
    DN(C_7,2,0xC01),
    DN(G_6,2,0x0C0),
    DN(A_6,2,0xC01),
    DN(D_7,2,0x0C0),
    DN(G_6,2,0xC01),
    DN(C_7,2,0x0C0),
    DN(D_7,2,0xC01),
    DN(A_6,2,0x0C0),
    DN(C_7,2,0xC01),
    DN(G_6,2,0x0C0),
    DN(A_6,2,0xC01),
    DN(A_6,2,0x0C0),
    DN(G_6,2,0xC01),
    DN(G_6,2,0x0C0),
    DN(A_6,2,0xC01),
    DN(F_6,2,0x0C0),
    DN(G_6,2,0xC01),
    DN(E_6,2,0x0C0),
    DN(F_6,2,0xC01),
    DN(D_6,2,0x0C0),
    DN(E_6,2,0xC01),
    DN(G_6,2,0x0C0),
    DN(D_6,2,0xC01),
    DN(A_6,2,0x0C0),
    DN(G_6,2,0xC01),
    DN(C_7,2,0x0C0),
    DN(A_6,2,0xC01),
    DN(D_7,2,0x0C0),
    DN(C_7,2,0xC01),
    DN(C_7,2,0x0C0),
    DN(D_7,2,0xC01),
    DN(A_6,2,0x0C0),
    DN(C_7,2,0xC01),
    DN(G_6,2,0x0C0),
    DN(A_6,2,0xC01),
    DN(D_7,2,0x0C0),
    DN(G_6,2,0xC01),
    DN(C_7,2,0x0C0),
    DN(D_7,2,0xC01),
    DN(A_6,2,0x0C0),
    DN(C_7,2,0xC01),
    DN(G_6,2,0x0C0),
    DN(A_6,2,0xC01),
    DN(A_6,2,0x0C0),
    DN(G_6,2,0xC01),
    DN(G_6,2,0x0C0),
    DN(A_6,2,0xC01),
    DN(F_6,2,0x0C0),
    DN(G_6,2,0xC01),
    DN(E_6,2,0x0C0),
    DN(F_6,2,0xC01),
};
static const unsigned char P33[] = {
    DN(D_6,13,0x900),
    DN(A_5,13,0xC09),
    DN(A_5,13,0x940),
    DN(D_6,13,0xC09),
    DN(D_5,13,0x980),
    DN(A_5,13,0xC09),
    DN(A_4,13,0x9C0),
    DN(D_5,13,0xC09),
    DN(D_4,13,0x980),
    DN(A_4,13,0xC09),
    DN(A_4,13,0x940),
    DN(D_4,13,0xC09),
    DN(D_5,13,0x900),
    DN(A_4,13,0xC09),
    DN(A_5,13,0x940),
    DN(D_5,13,0xC09),
    DN(D_6,13,0x980),
    DN(A_5,13,0xC09),
    DN(A_5,13,0x9C0),
    DN(D_6,13,0xC09),
    DN(D_5,13,0x980),
    DN(A_5,13,0xC09),
    DN(A_4,13,0x940),
    DN(D_5,13,0xC09),
    DN(D_4,13,0x900),
    DN(A_4,13,0xC09),
    DN(A_4,13,0x940),
    DN(D_4,13,0xC09),
    DN(D_5,13,0x980),
    DN(A_4,13,0xC09),
    DN(A_5,13,0x9C0),
    DN(D_5,13,0xC09),
    DN(A_4,13,0x980),
    DN(A_5,13,0xC09),
    DN(Cs5,13,0x940),
    DN(A_4,13,0xC09),
    DN(E_5,13,0x900),
    DN(Cs5,13,0xC09),
    DN(A_5,13,0x940),
    DN(E_5,13,0xC09),
    DN(Cs6,13,0x980),
    DN(A_5,13,0xC09),
    DN(A_5,13,0x9C0),
    DN(Cs6,13,0xC09),
    DN(E_5,13,0x980),
    DN(A_5,13,0xC09),
    DN(Cs5,13,0x940),
    DN(E_5,13,0xC09),
    DN(A_4,13,0x900),
    DN(Cs5,13,0xC09),
    DN(Cs5,13,0x940),
    DN(A_4,13,0xC09),
    DN(E_5,13,0x980),
    DN(Cs5,13,0xC09),
    DN(A_5,13,0x9C0),
    DN(E_5,13,0xC09),
    DN(Cs6,13,0x980),
    DN(A_5,13,0xC09),
    DN(A_5,13,0x940),
    DN(Cs6,13,0xC09),
    DN(E_5,13,0x900),
    DN(A_5,13,0xC09),
    DN(Cs5,13,0x940),
    DN(E_5,13,0xC09),
};
static const unsigned char P35[] = {
    DN(D_6,2,0x0C0),
    DN(D_6,2,0xC01),
    DN(G_6,2,0x0C0),
    DN(D_6,2,0xC01),
    DN(A_6,2,0x0C0),
    DN(G_6,2,0xC01),
    DN(C_7,2,0x0C0),
    DN(A_6,2,0xC01),
    DN(D_7,2,0x0C0),
    DN(C_7,2,0xC01),
    DN(C_7,2,0x0C0),
    DN(D_7,2,0xC01),
    DN(A_6,2,0x0C0),
    DN(C_7,2,0xC01),
    DN(G_6,2,0x0C0),
    DN(A_6,2,0xC01),
    DN(D_7,2,0x0C0),
    DN(G_6,2,0xC01),
    DN(C_7,2,0x0C0),
    DN(D_7,2,0xC01),
    DN(A_6,2,0x0C0),
    DN(C_7,2,0xC01),
    DN(G_6,2,0x0C0),
    DN(A_6,2,0xC01),
    DN(A_6,2,0x0C0),
    DN(G_6,2,0xC01),
    DN(G_6,2,0x0C0),
    DN(A_6,2,0xC01),
    DN(F_6,2,0x0C0),
    DN(G_6,2,0xC01),
    DN(E_6,2,0x0C0),
    DN(F_6,2,0xC01),
    DN(A_6,2,0x0C0),
    DN(E_6,2,0xC01),
    DN(G_6,2,0x0C0),
    DN(A_6,2,0xC01),
    DN(F_6,2,0x0C0),
    DN(G_6,2,0xC01),
    DN(E_6,2,0x0C0),
    DN(F_6,2,0xC01),
    DN(F_6,2,0x0C0),
    DN(E_6,2,0xC01),
    DN(E_6,2,0x0C0),
    DN(F_6,2,0xC01),
    DN(D_6,2,0x0C0),
    DN(E_6,2,0xC01),
    DN(C_6,2,0x0C0),
    DN(D_6,2,0xC01),
    DN(A_6,2,0x0C0),
    DN(C_6,2,0xC01),
    DN(G_6,2,0x0C0),
    DN(A_6,2,0xC01),
    DN(F_6,2,0x0C0),
    DN(G_6,2,0xC01),
    DN(E_6,2,0x0C0),
    DN(F_6,2,0xC01),
    DN(F_6,2,0x0C0),
    DN(E_6,2,0xC01),
    DN(E_6,2,0x0C0),
    DN(F_6,2,0xC01),
    DN(D_6,2,0x0C0),
    DN(E_6,2,0xC01),
    DN(F_6,2,0x0C0),
    DN(D_6,2,0xC01),
};

static const unsigned char itNoiseSP1[] = {
    DN(___,0,0x000),
    DN(36,0,0x000),
    DN(36,0,0x000),
    DN(36,0,0x000),
    DN(36,5,0x000),
    DN(36,0,0x000),
    DN(36,0,0x000),
    DN(___,0,0x000),
    DN(___,0,0x000),
    DN(___,0,0x000),
    DN(___,0,0x000),
    DN(___,0,0x000),
    DN(___,0,0x000),
    DN(___,0,0x000),
    DN(___,0,0x000),
    DN(___,0,0x000),
    DN(___,0,0x000),
    DN(___,0,0x000),
    DN(___,0,0x000),
    DN(___,0,0x000),
    DN(___,0,0x000),
    DN(___,0,0x000),
    DN(___,0,0x000),
    DN(___,0,0x000),
    DN(___,0,0x000),
    DN(___,0,0x000),
    DN(___,0,0x000),
    DN(___,0,0x000),
    DN(___,0,0x000),
    DN(___,0,0x000),
    DN(___,0,0x000),
    DN(___,1,0x000),
};
static const unsigned char itNoiseSP2[] = {
    DN(___,0,0x000),
    DN(36,0,0x000),
    DN(36,0,0x000),
    DN(36,0,0x000),
    DN(36,5,0x000),
    DN(36,0,0x000),
    DN(36,0,0x000),
    DN(___,0,0x000),
    DN(___,0,0x000),
    DN(___,0,0x000),
    DN(___,0,0x000),
    DN(___,0,0x000),
    DN(___,0,0x000),
    DN(___,0,0x000),
    DN(___,0,0x000),
    DN(___,0,0x000),
    DN(___,0,0x000),
    DN(___,0,0x000),
    DN(___,0,0x000),
    DN(___,0,0x000),
    DN(___,0,0x000),
    DN(___,0,0x000),
    DN(___,0,0x000),
    DN(___,0,0x000),
    DN(___,0,0x000),
    DN(___,0,0x000),
    DN(___,0,0x000),
    DN(___,0,0x000),
    DN(___,0,0x000),
    DN(___,0,0x000),
    DN(___,0,0x000),
    DN(___,1,0x000),
};
static const unsigned char itNoiseSP3[] = {
    DN(___,0,0x000),
    DN(36,0,0x000),
    DN(36,0,0x000),
    DN(36,0,0x000),
    DN(36,5,0x000),
    DN(36,0,0x000),
    DN(36,0,0x000),
    DN(___,0,0x000),
    DN(___,0,0x000),
    DN(___,0,0x000),
    DN(___,0,0x000),
    DN(___,0,0x000),
    DN(___,0,0x000),
    DN(___,0,0x000),
    DN(___,0,0x000),
    DN(___,0,0x000),
    DN(___,0,0x000),
    DN(___,0,0x000),
    DN(___,0,0x000),
    DN(___,0,0x000),
    DN(___,0,0x000),
    DN(___,0,0x000),
    DN(___,0,0x000),
    DN(___,0,0x000),
    DN(___,0,0x000),
    DN(___,0,0x000),
    DN(___,0,0x000),
    DN(___,0,0x000),
    DN(___,0,0x000),
    DN(___,0,0x000),
    DN(___,0,0x000),
    DN(___,1,0x000),
};
static const unsigned char itNoiseSP4[] = {
    DN(___,0,0x000),
    DN(36,0,0x000),
    DN(36,0,0x000),
    DN(36,0,0x000),
    DN(36,5,0x000),
    DN(36,0,0x000),
    DN(36,0,0x000),
    DN(___,0,0x000),
    DN(___,0,0x000),
    DN(___,0,0x000),
    DN(___,0,0x000),
    DN(___,0,0x000),
    DN(___,0,0x000),
    DN(___,0,0x000),
    DN(___,0,0x000),
    DN(___,0,0x000),
    DN(___,0,0x000),
    DN(___,0,0x000),
    DN(___,0,0x000),
    DN(___,0,0x000),
    DN(___,0,0x000),
    DN(___,0,0x000),
    DN(___,0,0x000),
    DN(___,0,0x000),
    DN(___,0,0x000),
    DN(___,0,0x000),
    DN(___,0,0x000),
    DN(___,0,0x000),
    DN(___,0,0x000),
    DN(___,0,0x000),
    DN(___,0,0x000),
    DN(___,1,0x000),
};
static const unsigned char itNoiseSP5[] = {
    DN(___,0,0x000),
    DN(36,0,0x000),
    DN(36,0,0x000),
    DN(36,0,0x000),
    DN(36,5,0x000),
    DN(36,0,0x000),
    DN(36,0,0x000),
    DN(___,0,0x000),
    DN(___,0,0x000),
    DN(___,0,0x000),
    DN(___,0,0x000),
    DN(___,0,0x000),
    DN(___,0,0x000),
    DN(___,0,0x000),
    DN(___,0,0x000),
    DN(___,0,0x000),
    DN(___,0,0x000),
    DN(___,0,0x000),
    DN(___,0,0x000),
    DN(___,0,0x000),
    DN(___,0,0x000),
    DN(___,0,0x000),
    DN(___,0,0x000),
    DN(___,0,0x000),
    DN(___,0,0x000),
    DN(___,0,0x000),
    DN(___,0,0x000),
    DN(___,0,0x000),
    DN(___,0,0x000),
    DN(___,0,0x000),
    DN(___,0,0x000),
    DN(___,1,0x000),
};
static const unsigned char itNoiseSP6[] = {
    DN(___,0,0x000),
    DN(36,0,0x000),
    DN(36,0,0x000),
    DN(36,0,0x000),
    DN(36,5,0x000),
    DN(36,0,0x000),
    DN(36,0,0x000),
    DN(___,0,0x000),
    DN(___,0,0x000),
    DN(___,0,0x000),
    DN(___,0,0x000),
    DN(___,0,0x000),
    DN(___,0,0x000),
    DN(___,0,0x000),
    DN(___,0,0x000),
    DN(___,0,0x000),
    DN(___,0,0x000),
    DN(___,0,0x000),
    DN(___,0,0x000),
    DN(___,0,0x000),
    DN(___,0,0x000),
    DN(___,0,0x000),
    DN(___,0,0x000),
    DN(___,0,0x000),
    DN(___,0,0x000),
    DN(___,0,0x000),
    DN(___,0,0x000),
    DN(___,0,0x000),
    DN(___,0,0x000),
    DN(___,0,0x000),
    DN(___,0,0x000),
    DN(___,1,0x000),
};
static const unsigned char itNoiseSP7[] = {
    DN(___,0,0x000),
    DN(36,0,0x000),
    DN(36,0,0x000),
    DN(36,0,0x000),
    DN(36,5,0x000),
    DN(36,0,0x000),
    DN(36,0,0x000),
    DN(___,0,0x000),
    DN(___,0,0x000),
    DN(___,0,0x000),
    DN(___,0,0x000),
    DN(___,0,0x000),
    DN(___,0,0x000),
    DN(___,0,0x000),
    DN(___,0,0x000),
    DN(___,0,0x000),
    DN(___,0,0x000),
    DN(___,0,0x000),
    DN(___,0,0x000),
    DN(___,0,0x000),
    DN(___,0,0x000),
    DN(___,0,0x000),
    DN(___,0,0x000),
    DN(___,0,0x000),
    DN(___,0,0x000),
    DN(___,0,0x000),
    DN(___,0,0x000),
    DN(___,0,0x000),
    DN(___,0,0x000),
    DN(___,0,0x000),
    DN(___,0,0x000),
    DN(___,1,0x000),
};
static const unsigned char itNoiseSP8[] = {
    DN(___,0,0x000),
    DN(36,0,0x000),
    DN(36,0,0x000),
    DN(36,0,0x000),
    DN(36,5,0x000),
    DN(36,0,0x000),
    DN(36,0,0x000),
    DN(___,0,0x000),
    DN(___,0,0x000),
    DN(___,0,0x000),
    DN(___,0,0x000),
    DN(___,0,0x000),
    DN(___,0,0x000),
    DN(___,0,0x000),
    DN(___,0,0x000),
    DN(___,0,0x000),
    DN(___,0,0x000),
    DN(___,0,0x000),
    DN(___,0,0x000),
    DN(___,0,0x000),
    DN(___,0,0x000),
    DN(___,0,0x000),
    DN(___,0,0x000),
    DN(___,0,0x000),
    DN(___,0,0x000),
    DN(___,0,0x000),
    DN(___,0,0x000),
    DN(___,0,0x000),
    DN(___,0,0x000),
    DN(___,0,0x000),
    DN(___,0,0x000),
    DN(___,1,0x000),
};
static const unsigned char itNoiseSP9[] = {
    DN(___,0,0x000),
    DN(36,0,0x000),
    DN(36,0,0x000),
    DN(36,0,0x000),
    DN(36,5,0x000),
    DN(36,0,0x000),
    DN(36,0,0x000),
    DN(___,0,0x000),
    DN(___,0,0x000),
    DN(___,0,0x000),
    DN(___,0,0x000),
    DN(___,0,0x000),
    DN(___,0,0x000),
    DN(___,0,0x000),
    DN(___,0,0x000),
    DN(___,0,0x000),
    DN(___,0,0x000),
    DN(___,0,0x000),
    DN(___,0,0x000),
    DN(___,0,0x000),
    DN(___,0,0x000),
    DN(___,0,0x000),
    DN(___,0,0x000),
    DN(___,0,0x000),
    DN(___,0,0x000),
    DN(___,0,0x000),
    DN(___,0,0x000),
    DN(___,0,0x000),
    DN(___,0,0x000),
    DN(___,0,0x000),
    DN(___,0,0x000),
    DN(___,1,0x000),
};
static const unsigned char itNoiseSP10[] = {
    DN(___,0,0x000),
    DN(36,0,0x000),
    DN(36,0,0x000),
    DN(36,0,0x000),
    DN(36,5,0x000),
    DN(36,0,0x000),
    DN(36,0,0x000),
    DN(___,0,0x000),
    DN(___,0,0x000),
    DN(___,0,0x000),
    DN(___,0,0x000),
    DN(___,0,0x000),
    DN(___,0,0x000),
    DN(___,0,0x000),
    DN(___,0,0x000),
    DN(___,0,0x000),
    DN(___,0,0x000),
    DN(___,0,0x000),
    DN(___,0,0x000),
    DN(___,0,0x000),
    DN(___,0,0x000),
    DN(___,0,0x000),
    DN(___,0,0x000),
    DN(___,0,0x000),
    DN(___,0,0x000),
    DN(___,0,0x000),
    DN(___,0,0x000),
    DN(___,0,0x000),
    DN(___,0,0x000),
    DN(___,0,0x000),
    DN(___,0,0x000),
    DN(___,1,0x000),
};
static const unsigned char itNoiseSP11[] = {
    DN(___,0,0x000),
    DN(36,0,0x000),
    DN(36,0,0x000),
    DN(36,0,0x000),
    DN(36,5,0x000),
    DN(36,0,0x000),
    DN(36,0,0x000),
    DN(___,0,0x000),
    DN(___,0,0x000),
    DN(___,0,0x000),
    DN(___,0,0x000),
    DN(___,0,0x000),
    DN(___,0,0x000),
    DN(___,0,0x000),
    DN(___,0,0x000),
    DN(___,0,0x000),
    DN(___,0,0x000),
    DN(___,0,0x000),
    DN(___,0,0x000),
    DN(___,0,0x000),
    DN(___,0,0x000),
    DN(___,0,0x000),
    DN(___,0,0x000),
    DN(___,0,0x000),
    DN(___,0,0x000),
    DN(___,0,0x000),
    DN(___,0,0x000),
    DN(___,0,0x000),
    DN(___,0,0x000),
    DN(___,0,0x000),
    DN(___,0,0x000),
    DN(___,1,0x000),
};
static const unsigned char itNoiseSP12[] = {
    DN(___,0,0x000),
    DN(36,0,0x000),
    DN(36,0,0x000),
    DN(36,0,0x000),
    DN(36,5,0x000),
    DN(36,0,0x000),
    DN(36,0,0x000),
    DN(___,0,0x000),
    DN(___,0,0x000),
    DN(___,0,0x000),
    DN(___,0,0x000),
    DN(___,0,0x000),
    DN(___,0,0x000),
    DN(___,0,0x000),
    DN(___,0,0x000),
    DN(___,0,0x000),
    DN(___,0,0x000),
    DN(___,0,0x000),
    DN(___,0,0x000),
    DN(___,0,0x000),
    DN(___,0,0x000),
    DN(___,0,0x000),
    DN(___,0,0x000),
    DN(___,0,0x000),
    DN(___,0,0x000),
    DN(___,0,0x000),
    DN(___,0,0x000),
    DN(___,0,0x000),
    DN(___,0,0x000),
    DN(___,0,0x000),
    DN(___,0,0x000),
    DN(___,1,0x000),
};
static const unsigned char itNoiseSP13[] = {
    DN(___,0,0x000),
    DN(36,0,0x000),
    DN(36,0,0x000),
    DN(36,0,0x000),
    DN(36,5,0x000),
    DN(36,0,0x000),
    DN(36,0,0x000),
    DN(___,0,0x000),
    DN(___,0,0x000),
    DN(___,0,0x000),
    DN(___,0,0x000),
    DN(___,0,0x000),
    DN(___,0,0x000),
    DN(___,0,0x000),
    DN(___,0,0x000),
    DN(___,0,0x000),
    DN(___,0,0x000),
    DN(___,0,0x000),
    DN(___,0,0x000),
    DN(___,0,0x000),
    DN(___,0,0x000),
    DN(___,0,0x000),
    DN(___,0,0x000),
    DN(___,0,0x000),
    DN(___,0,0x000),
    DN(___,0,0x000),
    DN(___,0,0x000),
    DN(___,0,0x000),
    DN(___,0,0x000),
    DN(___,0,0x000),
    DN(___,0,0x000),
    DN(___,1,0x000),
};
static const unsigned char itNoiseSP14[] = {
    DN(___,0,0x000),
    DN(36,0,0x000),
    DN(36,0,0x000),
    DN(36,0,0x000),
    DN(36,5,0x000),
    DN(36,0,0x000),
    DN(36,0,0x000),
    DN(___,0,0x000),
    DN(___,0,0x000),
    DN(___,0,0x000),
    DN(___,0,0x000),
    DN(___,0,0x000),
    DN(___,0,0x000),
    DN(___,0,0x000),
    DN(___,0,0x000),
    DN(___,0,0x000),
    DN(___,0,0x000),
    DN(___,0,0x000),
    DN(___,0,0x000),
    DN(___,0,0x000),
    DN(___,0,0x000),
    DN(___,0,0x000),
    DN(___,0,0x000),
    DN(___,0,0x000),
    DN(___,0,0x000),
    DN(___,0,0x000),
    DN(___,0,0x000),
    DN(___,0,0x000),
    DN(___,0,0x000),
    DN(___,0,0x000),
    DN(___,0,0x000),
    DN(___,1,0x000),
};
static const unsigned char itNoiseSP15[] = {
    DN(___,0,0x000),
    DN(36,0,0x000),
    DN(36,0,0x000),
    DN(36,0,0x000),
    DN(36,5,0x000),
    DN(36,0,0x000),
    DN(36,0,0x000),
    DN(___,0,0x000),
    DN(___,0,0x000),
    DN(___,0,0x000),
    DN(___,0,0x000),
    DN(___,0,0x000),
    DN(___,0,0x000),
    DN(___,0,0x000),
    DN(___,0,0x000),
    DN(___,0,0x000),
    DN(___,0,0x000),
    DN(___,0,0x000),
    DN(___,0,0x000),
    DN(___,0,0x000),
    DN(___,0,0x000),
    DN(___,0,0x000),
    DN(___,0,0x000),
    DN(___,0,0x000),
    DN(___,0,0x000),
    DN(___,0,0x000),
    DN(___,0,0x000),
    DN(___,0,0x000),
    DN(___,0,0x000),
    DN(___,0,0x000),
    DN(___,0,0x000),
    DN(___,1,0x000),
};
static const unsigned char* const order1[] = {P0,P3,P7,P11,P7,P11,P7,P11,P7,P7,P7,P7,P11,P11,P7,P7,P24,P33,P24,P33,P7,P7,P7,P7,P11,P11,P7,P7,P7,P11,P7,P11};
static const unsigned char* const order2[] = {P1,P5,P8,P12,P24,P19,P17,P17,P25,P26,P27,P28,P29,P30,P31,P31,P8,P12,P8,P12,P25,P26,P27,P28,P29,P30,P31,P31,P24,P19,P24,P19};
static const unsigned char* const order3[] = {P2,P4,P2,P4,P2,P4,P2,P4,P2,P2,P2,P2,P4,P4,P2,P2,P32,P35,P32,P35,P2,P2,P2,P2,P4,P4,P2,P2,P2,P4,P2,P4};
static const unsigned char* const order4[] = {P3,P6,P10,P10,P10,P10,P10,P10,P10,P10,P10,P10,P10,P10,P10,P10,P10,P10,P10,P10,P10,P10,P10,P10,P10,P10,P10,P10,P10,P10,P10,P10};

static const hUGEDutyInstr_t duty_instruments[] = {
    {8,192,192,0,128},
    {8,128,240,0,128},
    {8,128,240,0,128},
    {8,128,240,0,128},
    {8,128,240,0,128},
    {8,128,240,0,128},
    {8,128,240,0,128},
    {8,64,241,0,128},
    {8,128,240,0,128},
    {8,192,96,0,128},
    {8,192,48,0,128},
    {8,128,240,0,128},
    {8,0,243,0,128},
    {8,0,247,0,128},
    {8,128,240,0,128},
};
static const hUGEWaveInstr_t wave_instruments[] = {
    {0,32,0,0,128},
    {0,32,0,0,128},
    {0,32,1,0,128},
    {0,32,2,0,128},
    {0,32,3,0,128},
    {0,32,4,0,128},
    {0,32,5,0,128},
    {0,32,7,0,128},
    {0,32,8,0,128},
    {0,32,9,0,128},
    {0,32,10,0,128},
    {0,32,11,0,128},
    {0,32,12,0,128},
    {0,32,13,0,128},
    {0,32,14,0,128},
};
static const hUGENoiseInstr_t noise_instruments[] = {
    {240,itNoiseSP1,0,0,0},
    {240,itNoiseSP2,0,0,0},
    {240,itNoiseSP3,0,0,0},
    {240,itNoiseSP4,0,0,0},
    {240,itNoiseSP5,0,0,0},
    {240,itNoiseSP6,0,0,0},
    {240,itNoiseSP7,0,0,0},
    {240,itNoiseSP8,0,0,0},
    {240,itNoiseSP9,75,0,0},
    {240,itNoiseSP10,0,0,0},
    {240,itNoiseSP11,0,0,0},
    {241,itNoiseSP12,64,0,0},
    {240,itNoiseSP13,0,0,0},
    {240,itNoiseSP14,0,0,0},
    {240,itNoiseSP15,0,0,0},
};

static const unsigned char waves[] = {
    255,255,255,255,255,255,255,255,255,240,0,0,0,0,0,0,
    12,189,129,34,221,5,78,0,16,1,17,36,80,31,153,148,
    219,116,48,159,255,255,175,95,253,0,0,0,160,0,0,73,
    79,255,255,255,255,255,239,255,255,240,0,0,0,0,0,14,
    208,214,162,38,162,63,0,160,4,88,61,83,133,162,20,90,
    150,66,17,17,34,70,188,221,219,83,34,36,174,255,180,157,
    2,168,74,180,230,59,133,141,137,61,234,102,206,161,75,198,
    173,56,77,234,138,151,126,57,86,153,112,116,169,68,89,182,
    33,65,133,136,128,158,148,99,210,81,110,211,200,166,17,213,
    126,194,221,2,121,33,188,204,104,38,1,234,86,106,12,94,
    195,11,94,171,37,119,5,34,2,182,61,94,217,168,11,39,
    8,163,238,73,168,200,186,228,133,51,50,62,139,103,227,163,
    0,103,77,174,89,40,12,27,167,106,137,218,231,54,157,50,
    59,212,213,152,76,121,13,68,107,210,174,106,115,190,58,211,
    62,119,10,50,106,89,99,66,140,203,26,116,18,170,86,140,
    50,39,21,174,11,187,29,49,184,168,14,52,67,161,0,141,
};

const hUGESong_t cognition = {5, &order_cnt, order1, order2, order3,order4, duty_instruments, wave_instruments, noise_instruments, NULL, waves};
